<svg width="600" height="400"><g transform="translate(300 200)"><defs><linearGradient id="a" x1="1.049" x2="1.049" y1="-159.997" y2="-159.997" gradientUnits="userSpaceOnUse"><stop offset="10%" stop-color="#D2D0C6"/><stop offset="100%" stop-color="#D2D0C6"/></linearGradient><linearGradient id="b" x1="71.769" x2="147.491" y1="-143.001" y2="-62.019" gradientUnits="userSpaceOnUse"><stop offset="10%" stop-color="#D2D0C6"/><stop offset="100%" stop-color="#ECD08D"/></linearGradient><linearGradient id="c" x1="25.997" x2="117.758" y1="-157.874" y2="108.319" gradientUnits="userSpaceOnUse"><stop offset="10%" stop-color="#D2D0C6"/><stop offset="100%" stop-color="#4682b4"/></linearGradient><linearGradient id="d" x1="111.656" x2="-158.626" y1="-114.599" y2="20.927" gradientUnits="userSpaceOnUse"><stop offset="10%" stop-color="#D2D0C6"/><stop offset="100%" stop-color="#DB704D"/></linearGradient><linearGradient id="e" x1="135.861" x2="135.861" y1="-84.51" y2="-84.51" gradientUnits="userSpaceOnUse"><stop offset="10%" stop-color="#ECD08D"/><stop offset="100%" stop-color="#ECD08D"/></linearGradient><linearGradient id="f" x1="159.692" x2="75.709" y1="-9.922" y2="140.955" gradientUnits="userSpaceOnUse"><stop offset="10%" stop-color="#ECD08D"/><stop offset="100%" stop-color="#4682b4"/></linearGradient><linearGradient id="g" x1="151.986" x2="-156.145" y1="50.002" y2="-34.911" gradientUnits="userSpaceOnUse"><stop offset="10%" stop-color="#ECD08D"/><stop offset="100%" stop-color="#DB704D"/></linearGradient><linearGradient id="h" x1="-110.465" x2="-110.465" y1="115.748" y2="115.748" gradientUnits="userSpaceOnUse"><stop offset="10%" stop-color="#4682b4"/><stop offset="100%" stop-color="#4682b4"/></linearGradient><linearGradient id="i" x1="-.888" x2="-61.466" y1="159.998" y2="-147.722" gradientUnits="userSpaceOnUse"><stop offset="10%" stop-color="#4682b4"/><stop offset="100%" stop-color="#DB704D"/></linearGradient><linearGradient id="j" x1="-128.436" x2="-128.436" y1="-95.416" y2="-95.416" gradientUnits="userSpaceOnUse"><stop offset="10%" stop-color="#DB704D"/><stop offset="100%" stop-color="#DB704D"/></linearGradient></defs><path d="M0-166.4a166.4 166.4 0 0 1 133.168 66.624l-5.122 3.837A160 160 0 0 0 0-160Z" class="group" style="fill:#d2d0c6;stroke-width:.75px;stroke:#d2d0c6"/><path d="M140.716-88.815a166.4 166.4 0 0 1 4.217 170.567l-5.574-3.144A160 160 0 0 0 135.303-85.4Z" class="group" style="fill:#ecd08d;stroke-width:.75px;stroke:#ecd08d"/><path d="M137.936 93.073a166.4 166.4 0 0 1-293.282-33.435l5.975-2.294a160 160 0 0 0 282.002 32.15Z" class="group" style="fill:#4682b4;stroke-width:.75px;stroke:#4682b4"/><path d="M-159.615 47.033a166.4 166.4 0 0 1 146.317-212.9l.512 6.379a160 160 0 0 0-140.69 204.712Z" class="group" style="fill:#db704d;stroke-width:.75px;stroke:#db704d"/><g class="chord"><path d="M0-158a158 158 0 0 1 2.072.014Q0 0 0-158Z" style="fill:url(#a);stroke-width:.5px;opacity:1"/><path d="M48.695-150.31a158 158 0 0 1 42.723 21.443Q0 0 134.707-82.572a158 158 0 0 1 18.529 44.065Q0 0 48.695-150.31Z" style="fill:url(#b);stroke-width:.5px;opacity:1"/><path d="M2.072-157.986a158 158 0 0 1 46.623 7.677Q0 0 130.973 88.375a158 158 0 0 1-31.988 34.775Q0 0 2.072-157.986Z" style="fill:url(#c);stroke-width:.5px;opacity:1"/><path d="M91.418-128.867a158 158 0 0 1 35.027 34.128Q0 0-151.557 44.659a158 158 0 0 1-6.397-48.485Q0 0 91.418-128.867Z" style="fill:url(#d);stroke-width:.5px;opacity:1"/><path d="M133.612-84.332a158 158 0 0 1 1.095 1.76Q0 0 133.612-84.332Z" style="fill:url(#e);stroke-width:.5px;opacity:1"/><path d="M153.236-38.507a158 158 0 0 1 3.588 57.75Q0 0 98.985 123.15a158 158 0 0 1-50.973 27.379Q0 0 153.236-38.507Z" style="fill:url(#f);stroke-width:.5px;opacity:1"/><path d="M156.824 19.242a158 158 0 0 1-19.207 58.383Q0 0-157.953-3.825a158 158 0 0 1 13.41-59.981Q0 0 156.824 19.242Z" style="fill:url(#g);stroke-width:.5px;opacity:1"/><path d="M-49.68 149.987a158 158 0 0 1-97.824-93.36Q0 0-49.679 149.988Z" style="fill:url(#h);stroke-width:.5px;opacity:1"/><path d="M48.012 150.529a158 158 0 0 1-97.691-.542Q0 0-102.823-119.965a158 158 0 0 1 90.196-37.53Q0 0 48.012 150.53Z" style="fill:url(#i);stroke-width:.5px;opacity:1"/><path d="M-144.543-63.806a158 158 0 0 1 41.72-56.159Q0 0-144.543-63.806Z" style="fill:url(#j);stroke-width:.5px;opacity:1"/></g><text class="text1" dx="81.163" dy="-162.23" style="font-size:13;font-weight:700;font-family:Helvetica,sans-serif;cursor:pointer">SM/SL glands</text><text class="text1" dx="181.345" dy="-4.484" style="font-size:13;font-weight:700;font-family:Helvetica,sans-serif;cursor:pointer">Parotid glands</text><text class="text1" dx="-20.547" dy="180.233" style="font-size:13;font-weight:700;font-family:Helvetica,sans-serif;cursor:pointer" text-anchor="end">Whole saliva</text><text class="text1" dx="-149.498" dy="-102.743" style="font-size:13;font-weight:700;font-family:Helvetica,sans-serif;cursor:pointer" text-anchor="end">Blood plasma</text><text class="text2" dx="81.163" dy="-147.23" opacity=".94" style="font-size:9;font-family:Helvetica,sans-serif">(758 proteins)</text><text class="text2" dx="181.345" dy="10.516" opacity=".94" style="font-size:9;font-family:Helvetica,sans-serif">(969 proteins)</text><text class="text2" dx="-20.547" dy="195.233" opacity=".94" style="font-size:9;font-family:Helvetica,sans-serif" text-anchor="end">(3140 proteins)</text><text class="text2" dx="-149.498" dy="-87.743" opacity=".94" style="font-size:9;font-family:Helvetica,sans-serif" text-anchor="end">(2348 proteins)</text></g></svg>