<?xml version="1.0" encoding="UTF-8"?>
<svg xmlns="http://www.w3.org/2000/svg" xmlns:xlink="http://www.w3.org/1999/xlink" width="150px" height="107px" viewBox="0 0 150 107" version="1.1">
<g id="surface1">
<path style=" stroke:none;fill-rule:nonzero;fill:rgb(0%,34.117647%,23.921569%);fill-opacity:1;" d="M 132.261719 89.363281 L 132.324219 89.363281 C 132.40625 89.363281 132.460938 89.359375 132.484375 89.355469 C 132.507812 89.347656 132.519531 89.335938 132.53125 89.320312 C 132.546875 89.300781 132.550781 89.28125 132.550781 89.261719 C 132.550781 89.238281 132.546875 89.21875 132.53125 89.207031 C 132.519531 89.1875 132.507812 89.179688 132.484375 89.171875 C 132.460938 89.164062 132.40625 89.164062 132.324219 89.164062 L 132.261719 89.164062 Z M 132.109375 89.785156 L 132.109375 89.046875 L 132.257812 89.046875 C 132.394531 89.046875 132.476562 89.046875 132.492188 89.046875 C 132.542969 89.050781 132.582031 89.058594 132.609375 89.078125 C 132.636719 89.089844 132.65625 89.117188 132.675781 89.148438 C 132.695312 89.179688 132.703125 89.214844 132.703125 89.257812 C 132.703125 89.308594 132.683594 89.355469 132.648438 89.394531 C 132.613281 89.433594 132.5625 89.457031 132.5 89.464844 C 132.523438 89.476562 132.542969 89.484375 132.554688 89.492188 C 132.570312 89.503906 132.582031 89.519531 132.605469 89.550781 C 132.609375 89.5625 132.625 89.585938 132.65625 89.640625 L 132.742188 89.789062 L 132.558594 89.789062 L 132.496094 89.667969 C 132.457031 89.585938 132.421875 89.539062 132.394531 89.515625 C 132.367188 89.492188 132.332031 89.484375 132.292969 89.484375 L 132.25 89.484375 L 132.25 89.789062 L 132.109375 89.789062 Z M 132.421875 88.851562 C 132.328125 88.851562 132.234375 88.875 132.148438 88.925781 C 132.058594 88.972656 131.992188 89.042969 131.945312 89.128906 C 131.894531 89.21875 131.867188 89.3125 131.867188 89.414062 C 131.867188 89.511719 131.890625 89.605469 131.9375 89.691406 C 131.988281 89.78125 132.054688 89.847656 132.144531 89.894531 C 132.234375 89.945312 132.324219 89.972656 132.421875 89.972656 C 132.519531 89.972656 132.609375 89.945312 132.699219 89.894531 C 132.789062 89.847656 132.855469 89.78125 132.902344 89.691406 C 132.953125 89.601562 132.980469 89.507812 132.980469 89.414062 C 132.980469 89.3125 132.953125 89.21875 132.902344 89.128906 C 132.855469 89.042969 132.78125 88.972656 132.699219 88.925781 C 132.609375 88.875 132.519531 88.851562 132.421875 88.851562 M 132.421875 88.714844 C 132.542969 88.714844 132.652344 88.746094 132.765625 88.804688 C 132.871094 88.863281 132.960938 88.949219 133.023438 89.058594 C 133.085938 89.171875 133.117188 89.289062 133.117188 89.410156 C 133.117188 89.527344 133.085938 89.644531 133.023438 89.753906 C 132.960938 89.859375 132.875 89.949219 132.769531 90.007812 C 132.664062 90.070312 132.546875 90.101562 132.425781 90.101562 C 132.304688 90.101562 132.1875 90.070312 132.082031 90.007812 C 131.96875 89.945312 131.886719 89.859375 131.828125 89.753906 C 131.765625 89.640625 131.734375 89.527344 131.734375 89.410156 C 131.734375 89.289062 131.765625 89.171875 131.828125 89.058594 C 131.890625 88.949219 131.976562 88.863281 132.085938 88.804688 C 132.1875 88.746094 132.304688 88.714844 132.421875 88.714844 "/>
<path style=" stroke:none;fill-rule:nonzero;fill:rgb(0%,34.117647%,23.921569%);fill-opacity:1;" d="M 19.335938 57.929688 C 19.335938 57.507812 19.25 57.460938 18.886719 57.460938 L 18.140625 57.460938 C 17.140625 57.460938 17.40625 58.625 17.007812 58.625 C 16.820312 58.625 16.875 58.429688 16.890625 58.316406 L 17.035156 57.144531 C 17.042969 57.054688 17.042969 56.929688 17.175781 56.929688 C 18.003906 56.929688 18.597656 56.964844 19.886719 56.964844 C 21.179688 56.964844 21.773438 56.929688 22.597656 56.929688 C 22.730469 56.929688 22.730469 57.054688 22.738281 57.144531 L 22.835938 57.960938 C 22.855469 58.070312 22.953125 58.414062 22.722656 58.414062 C 22.367188 58.414062 22.648438 57.429688 21.632812 57.464844 L 20.882812 57.464844 C 20.519531 57.464844 20.429688 57.511719 20.429688 57.9375 L 20.429688 61.949219 C 20.429688 63.042969 21.566406 62.789062 21.566406 63.035156 C 21.566406 63.25 21.386719 63.222656 21.132812 63.222656 C 20.777344 63.222656 20.484375 63.1875 19.890625 63.1875 C 19.296875 63.1875 19.003906 63.222656 18.648438 63.222656 C 18.488281 63.222656 18.34375 63.230469 18.34375 63.035156 C 18.34375 62.691406 19.34375 63.113281 19.34375 62.058594 L 19.34375 57.929688 Z M 19.335938 57.929688 "/>
<path style=" stroke:none;fill-rule:nonzero;fill:rgb(0%,34.117647%,23.921569%);fill-opacity:1;" d="M 30.804688 61.964844 C 30.804688 63.09375 31.722656 62.765625 31.722656 63.109375 C 31.722656 63.226562 31.652344 63.21875 31.535156 63.21875 C 31.242188 63.21875 30.71875 63.183594 30.359375 63.183594 C 30.039062 63.183594 29.691406 63.21875 29.242188 63.21875 C 29.117188 63.21875 29.0625 63.183594 29.0625 63.121094 C 29.0625 62.8125 29.710938 63.046875 29.710938 62.1875 L 29.710938 60.589844 C 29.710938 60.21875 29.738281 60.121094 29.347656 60.121094 L 26.984375 60.121094 C 26.578125 60.121094 26.550781 60.210938 26.550781 60.597656 L 26.550781 61.996094 C 26.550781 63.097656 27.648438 62.777344 27.648438 63.097656 C 27.648438 63.152344 27.667969 63.222656 27.378906 63.222656 C 27.019531 63.222656 26.722656 63.1875 26.085938 63.1875 C 25.714844 63.1875 25.339844 63.222656 24.898438 63.222656 C 24.792969 63.222656 24.703125 63.203125 24.703125 63.089844 C 24.703125 62.734375 25.457031 63.050781 25.457031 61.949219 L 25.457031 57.988281 C 25.457031 57.023438 24.457031 57.414062 24.457031 57.078125 C 24.457031 56.941406 24.726562 56.933594 24.890625 56.933594 C 25.15625 56.933594 25.421875 56.96875 25.882812 56.96875 C 26.414062 56.96875 26.769531 56.933594 27.023438 56.933594 C 27.148438 56.933594 27.230469 56.976562 27.230469 57.066406 C 27.230469 57.339844 26.546875 57.085938 26.546875 57.878906 L 26.546875 59.292969 C 26.546875 59.535156 26.582031 59.644531 26.769531 59.644531 L 29.402344 59.644531 C 29.660156 59.644531 29.710938 59.441406 29.710938 59.246094 L 29.710938 57.996094 C 29.710938 57.019531 28.738281 57.335938 28.738281 57.082031 C 28.738281 56.917969 28.816406 56.9375 28.941406 56.9375 C 29.304688 56.9375 29.535156 56.972656 30.085938 56.972656 C 30.546875 56.972656 30.875 56.9375 31.253906 56.9375 C 31.40625 56.9375 31.441406 56.964844 31.441406 57.046875 C 31.441406 57.382812 30.804688 57 30.804688 57.875 Z M 30.804688 61.964844 "/>
<path style=" stroke:none;fill-rule:nonzero;fill:rgb(0%,34.117647%,23.921569%);fill-opacity:1;" d="M 35.210938 59.210938 C 35.210938 59.59375 35.210938 59.65625 35.589844 59.65625 L 36.148438 59.65625 C 36.910156 59.65625 36.9375 58.835938 37.109375 58.835938 C 37.171875 58.835938 37.273438 58.816406 37.28125 59.058594 L 37.34375 60.640625 C 37.351562 60.757812 37.40625 61.074219 37.191406 61.074219 C 36.90625 61.074219 37.15625 60.132812 36.238281 60.132812 L 35.582031 60.132812 C 35.175781 60.132812 35.210938 60.242188 35.210938 60.757812 L 35.210938 61.894531 C 35.210938 62.445312 35.175781 62.765625 35.8125 62.765625 C 38.007812 62.765625 37.886719 61.601562 38.222656 61.601562 C 38.257812 61.601562 38.320312 61.628906 38.320312 61.800781 C 38.320312 62.492188 37.796875 63.222656 37.070312 63.222656 C 35.722656 63.222656 35.191406 63.1875 34.75 63.1875 C 34.472656 63.1875 34.101562 63.222656 33.617188 63.222656 C 33.5 63.222656 33.445312 63.175781 33.445312 63.125 C 33.445312 62.714844 34.121094 63.195312 34.121094 62.113281 L 34.121094 57.953125 C 34.121094 57.152344 33.121094 57.4375 33.121094 57.085938 C 33.121094 57.003906 33.191406 56.933594 33.316406 56.933594 C 33.679688 56.933594 34.316406 56.96875 35.675781 56.96875 C 36.304688 56.96875 36.914062 56.933594 37.695312 56.933594 C 37.8125 56.933594 37.875 57.023438 37.875 57.101562 L 37.910156 57.980469 C 37.917969 58.097656 37.964844 58.386719 37.757812 58.386719 C 37.34375 58.386719 38.035156 57.347656 36.320312 57.347656 C 35.25 57.347656 35.214844 57.359375 35.214844 57.972656 L 35.214844 59.210938 Z M 35.210938 59.210938 "/>
<path style=" stroke:none;fill-rule:nonzero;fill:rgb(0%,34.117647%,23.921569%);fill-opacity:1;" d="M 50.132812 59.976562 C 50.132812 61.78125 49.628906 63.28125 47.179688 63.28125 C 45.523438 63.28125 44.636719 62.507812 44.636719 60.78125 L 44.636719 57.886719 C 44.636719 57.121094 43.71875 57.40625 43.71875 57.066406 C 43.71875 56.953125 43.832031 56.925781 43.90625 56.925781 C 44.019531 56.925781 44.6875 56.960938 45.128906 56.960938 C 45.578125 56.960938 46.207031 56.925781 46.378906 56.925781 C 46.457031 56.925781 46.476562 56.996094 46.476562 57.050781 C 46.476562 57.347656 45.730469 56.878906 45.730469 58.339844 L 45.730469 60.269531 C 45.730469 61.628906 46.082031 62.757812 47.671875 62.757812 C 49.433594 62.757812 49.667969 61.351562 49.667969 59.851562 L 49.667969 58.09375 C 49.667969 57.070312 48.578125 57.34375 48.578125 57.027344 C 48.578125 56.882812 48.730469 56.929688 48.847656 56.929688 C 49.105469 56.945312 49.339844 56.964844 49.589844 56.964844 C 49.886719 56.964844 50.15625 56.945312 50.601562 56.929688 C 50.707031 56.929688 50.761719 56.945312 50.761719 57.046875 C 50.761719 57.285156 50.140625 56.964844 50.140625 57.96875 L 50.140625 59.976562 Z M 50.132812 59.976562 "/>
<path style=" stroke:none;fill-rule:nonzero;fill:rgb(0%,34.117647%,23.921569%);fill-opacity:1;" d="M 53.410156 58.632812 C 53.410156 56.929688 52.421875 57.507812 52.421875 57.082031 C 52.421875 57 52.464844 56.929688 52.574219 56.929688 C 52.742188 56.929688 52.898438 56.964844 53.070312 56.964844 C 53.300781 56.964844 53.527344 56.929688 53.996094 56.929688 C 54.28125 56.929688 54.175781 56.992188 54.332031 57.160156 L 57.894531 61.078125 C 58.007812 61.203125 58.117188 61.3125 58.171875 61.3125 C 58.222656 61.3125 58.242188 61.203125 58.242188 60.984375 L 58.242188 58.027344 C 58.242188 57.214844 57.160156 57.375 57.160156 57.085938 C 57.160156 57.023438 57.1875 56.933594 57.304688 56.933594 C 57.445312 56.933594 57.703125 56.96875 58.3125 56.96875 C 58.871094 56.96875 59.183594 56.933594 59.257812 56.933594 C 59.429688 56.933594 59.429688 57.023438 59.429688 57.050781 C 59.429688 57.3125 58.675781 57.101562 58.675781 58.035156 L 58.675781 63.019531 C 58.675781 63.21875 58.675781 63.289062 58.566406 63.289062 C 58.441406 63.289062 58.398438 63.234375 58.335938 63.164062 L 54.074219 58.542969 C 54.011719 58.472656 53.957031 58.429688 53.910156 58.429688 C 53.859375 58.429688 53.839844 58.492188 53.839844 58.570312 L 53.839844 61.59375 C 53.839844 63.296875 54.972656 62.695312 54.972656 63.109375 C 54.972656 63.234375 54.75 63.226562 54.640625 63.226562 C 54.207031 63.226562 53.902344 63.191406 53.59375 63.191406 C 53.308594 63.191406 53.074219 63.226562 52.832031 63.226562 C 52.734375 63.226562 52.554688 63.273438 52.554688 63.121094 C 52.554688 62.765625 53.40625 62.921875 53.40625 62.019531 L 53.40625 58.632812 Z M 53.410156 58.632812 "/>
<path style=" stroke:none;fill-rule:nonzero;fill:rgb(0%,34.117647%,23.921569%);fill-opacity:1;" d="M 63.34375 62.117188 C 63.34375 63.207031 64.335938 62.800781 64.335938 63.082031 C 64.335938 63.183594 64.253906 63.21875 64.054688 63.21875 C 63.726562 63.21875 63.398438 63.183594 62.707031 63.183594 C 62.324219 63.183594 61.941406 63.21875 61.714844 63.21875 C 61.632812 63.21875 61.617188 63.15625 61.617188 63.109375 C 61.617188 62.800781 62.253906 63.03125 62.253906 62.1875 L 62.253906 57.921875 C 62.253906 57.113281 61.253906 57.363281 61.253906 57.054688 C 61.253906 56.902344 61.476562 56.929688 61.554688 56.929688 C 61.898438 56.929688 62.246094 56.964844 62.554688 56.964844 C 62.871094 56.964844 63.191406 56.929688 63.695312 56.929688 C 63.964844 56.929688 64.003906 56.945312 64.003906 57.054688 C 64.003906 57.355469 63.339844 57.035156 63.339844 57.882812 L 63.339844 62.117188 Z M 63.34375 62.117188 "/>
<path style=" stroke:none;fill-rule:nonzero;fill:rgb(0%,34.117647%,23.921569%);fill-opacity:1;" d="M 69.574219 63.074219 C 69.476562 63.308594 69.433594 63.359375 69.332031 63.359375 C 69.246094 63.359375 69.15625 63.273438 69 62.898438 L 66.792969 57.730469 C 66.640625 57.386719 66.515625 57.285156 66.15625 57.199219 C 66.128906 57.1875 66.011719 57.132812 66.011719 57.070312 C 66.011719 56.855469 66.289062 56.929688 66.417969 56.929688 C 66.714844 56.929688 67.011719 56.964844 67.3125 56.964844 C 67.878906 56.964844 68.136719 56.929688 68.277344 56.929688 C 68.5625 56.929688 68.601562 56.917969 68.601562 57.070312 C 68.601562 57.3125 68.070312 57.179688 68.070312 57.550781 C 68.070312 57.816406 68.1875 58.234375 68.40625 58.777344 L 69.558594 61.636719 C 69.582031 61.699219 69.628906 61.824219 69.683594 61.824219 C 69.734375 61.824219 69.769531 61.699219 69.796875 61.636719 L 71.011719 58.933594 C 71.28125 58.339844 71.296875 58.03125 71.296875 57.886719 C 71.296875 57.050781 70.40625 57.382812 70.40625 57.066406 C 70.40625 56.898438 70.664062 56.925781 70.765625 56.925781 C 71.023438 56.925781 71.269531 56.960938 71.53125 56.960938 C 71.78125 56.960938 72.023438 56.925781 72.273438 56.925781 C 72.460938 56.925781 72.582031 56.898438 72.582031 57.050781 C 72.582031 57.253906 72.222656 57.210938 71.980469 57.734375 Z M 69.574219 63.074219 "/>
<path style=" stroke:none;fill-rule:nonzero;fill:rgb(0%,34.117647%,23.921569%);fill-opacity:1;" d="M 76.167969 59.210938 C 76.167969 59.59375 76.167969 59.65625 76.546875 59.65625 L 77.105469 59.65625 C 77.867188 59.65625 77.894531 58.835938 78.070312 58.835938 C 78.132812 58.835938 78.230469 58.816406 78.238281 59.058594 L 78.300781 60.640625 C 78.308594 60.757812 78.363281 61.074219 78.148438 61.074219 C 77.867188 61.074219 78.113281 60.132812 77.195312 60.132812 L 76.539062 60.132812 C 76.132812 60.132812 76.167969 60.242188 76.167969 60.757812 L 76.167969 61.894531 C 76.167969 62.445312 76.132812 62.765625 76.769531 62.765625 C 78.964844 62.765625 78.839844 61.601562 79.179688 61.601562 C 79.214844 61.601562 79.277344 61.628906 79.277344 61.800781 C 79.277344 62.492188 78.757812 63.222656 78.027344 63.222656 C 76.679688 63.222656 76.148438 63.1875 75.707031 63.1875 C 75.429688 63.1875 75.058594 63.222656 74.574219 63.222656 C 74.457031 63.222656 74.402344 63.175781 74.402344 63.125 C 74.402344 62.714844 75.078125 63.195312 75.078125 62.113281 L 75.078125 57.953125 C 75.078125 57.152344 74.078125 57.4375 74.078125 57.085938 C 74.078125 57.003906 74.148438 56.933594 74.273438 56.933594 C 74.636719 56.933594 75.273438 56.96875 76.632812 56.96875 C 77.261719 56.96875 77.871094 56.933594 78.652344 56.933594 C 78.769531 56.933594 78.832031 57.023438 78.832031 57.101562 L 78.867188 57.980469 C 78.875 58.097656 78.921875 58.386719 78.714844 58.386719 C 78.300781 58.386719 78.992188 57.347656 77.277344 57.347656 C 76.207031 57.347656 76.171875 57.359375 76.171875 57.972656 L 76.171875 59.210938 Z M 76.167969 59.210938 "/>
<path style=" stroke:none;fill-rule:nonzero;fill:rgb(0%,34.117647%,23.921569%);fill-opacity:1;" d="M 81.839844 58.046875 C 81.839844 57.054688 80.875 57.382812 80.875 57.0625 C 80.875 56.972656 80.964844 56.929688 81.074219 56.929688 C 81.480469 56.929688 81.550781 56.964844 82.109375 56.964844 C 82.703125 56.964844 83.304688 56.929688 83.898438 56.929688 C 85.839844 56.929688 86.015625 58.183594 86.015625 58.589844 C 86.015625 59.15625 85.753906 59.484375 85.5 59.699219 C 85.242188 59.90625 84.988281 59.984375 84.988281 60.070312 C 84.988281 60.125 85.742188 61.414062 86.378906 62.53125 C 86.460938 62.675781 86.628906 62.675781 86.699219 62.675781 C 86.789062 62.675781 86.878906 62.621094 86.964844 62.621094 C 87.042969 62.621094 87.097656 62.675781 87.097656 62.746094 C 87.097656 63.019531 86.515625 63.21875 86.160156 63.21875 C 85.460938 63.21875 85.179688 62.660156 84.902344 62.144531 L 84.15625 60.738281 C 83.953125 60.347656 83.796875 60.269531 83.347656 60.269531 C 82.878906 60.269531 82.933594 60.332031 82.933594 60.640625 L 82.933594 62.175781 C 82.933594 63.125 83.8125 62.761719 83.8125 63.078125 C 83.8125 63.160156 83.742188 63.214844 83.535156 63.214844 C 83.382812 63.214844 83.148438 63.175781 82.773438 63.175781 C 82.296875 63.175781 81.847656 63.214844 81.40625 63.214844 C 81.308594 63.214844 81.121094 63.242188 81.121094 63.0625 C 81.121094 62.777344 81.839844 63.070312 81.839844 61.949219 Z M 82.929688 59.636719 C 82.929688 59.859375 83.261719 59.859375 83.523438 59.859375 C 84.871094 59.859375 84.925781 59.363281 84.925781 58.839844 C 84.925781 57.96875 84.429688 57.3125 83.53125 57.3125 C 83.207031 57.3125 82.929688 57.3125 82.929688 57.847656 Z M 82.929688 59.636719 "/>
<path style=" stroke:none;fill-rule:nonzero;fill:rgb(0%,34.117647%,23.921569%);fill-opacity:1;" d="M 89.019531 61.394531 C 88.992188 61.269531 88.902344 61.015625 89.125 61.015625 C 89.269531 61.015625 89.285156 61.097656 89.320312 61.210938 C 89.601562 62.066406 90.15625 62.875 91.136719 62.875 C 91.828125 62.875 92.359375 62.449219 92.359375 61.734375 C 92.359375 60.980469 91.804688 60.863281 90.375 60.230469 C 89.613281 59.898438 89.089844 59.546875 89.089844 58.617188 C 89.089844 57.597656 89.800781 56.847656 90.835938 56.847656 C 91.5625 56.847656 91.933594 57.191406 92.199219 57.191406 C 92.316406 57.191406 92.535156 57.050781 92.652344 57.050781 C 92.785156 57.050781 92.757812 57.183594 92.777344 57.386719 L 92.875 58.574219 C 92.890625 58.773438 92.867188 58.878906 92.667969 58.878906 C 92.464844 58.878906 92.335938 57.230469 90.808594 57.230469 C 90.222656 57.230469 89.824219 57.5625 89.824219 58.160156 C 89.824219 58.753906 90.3125 58.871094 91.5 59.394531 C 92.445312 59.8125 93.03125 60.195312 93.03125 61.324219 C 93.03125 62.488281 92.214844 63.28125 91.054688 63.28125 C 90.511719 63.28125 90.0625 63.066406 89.542969 62.949219 C 89.320312 62.894531 89.332031 62.824219 89.285156 62.613281 Z M 89.019531 61.394531 "/>
<path style=" stroke:none;fill-rule:nonzero;fill:rgb(0%,34.117647%,23.921569%);fill-opacity:1;" d="M 97.074219 62.117188 C 97.074219 63.207031 98.066406 62.800781 98.066406 63.082031 C 98.066406 63.183594 97.984375 63.21875 97.785156 63.21875 C 97.453125 63.21875 97.128906 63.183594 96.4375 63.183594 C 96.058594 63.183594 95.671875 63.21875 95.445312 63.21875 C 95.363281 63.21875 95.347656 63.15625 95.347656 63.109375 C 95.347656 62.800781 95.984375 63.03125 95.984375 62.1875 L 95.984375 57.921875 C 95.984375 57.113281 94.984375 57.363281 94.984375 57.054688 C 94.984375 56.902344 95.207031 56.929688 95.285156 56.929688 C 95.628906 56.929688 95.976562 56.964844 96.285156 56.964844 C 96.605469 56.964844 96.921875 56.929688 97.425781 56.929688 C 97.695312 56.929688 97.738281 56.945312 97.738281 57.054688 C 97.738281 57.355469 97.074219 57.035156 97.074219 57.882812 Z M 97.074219 62.117188 "/>
<path style=" stroke:none;fill-rule:nonzero;fill:rgb(0%,34.117647%,23.921569%);fill-opacity:1;" d="M 102.238281 57.929688 C 102.238281 57.507812 102.148438 57.460938 101.789062 57.460938 L 101.042969 57.460938 C 100.042969 57.460938 100.304688 58.625 99.910156 58.625 C 99.722656 58.625 99.773438 58.429688 99.792969 58.316406 L 99.9375 57.144531 C 99.945312 57.054688 99.945312 56.929688 100.078125 56.929688 C 100.902344 56.929688 101.496094 56.964844 102.789062 56.964844 C 104.082031 56.964844 104.675781 56.929688 105.5 56.929688 C 105.636719 56.929688 105.636719 57.054688 105.644531 57.144531 L 105.742188 57.960938 C 105.761719 58.070312 105.859375 58.414062 105.625 58.414062 C 105.273438 58.414062 105.554688 57.429688 104.539062 57.464844 L 103.78125 57.464844 C 103.421875 57.464844 103.332031 57.511719 103.332031 57.9375 L 103.332031 61.949219 C 103.332031 63.042969 104.464844 62.789062 104.464844 63.035156 C 104.464844 63.25 104.289062 63.222656 104.03125 63.222656 C 103.679688 63.222656 103.386719 63.1875 102.792969 63.1875 C 102.199219 63.1875 101.910156 63.222656 101.550781 63.222656 C 101.390625 63.222656 101.238281 63.230469 101.238281 63.035156 C 101.238281 62.691406 102.238281 63.113281 102.238281 62.058594 Z M 102.238281 57.929688 "/>
<path style=" stroke:none;fill-rule:nonzero;fill:rgb(0%,34.117647%,23.921569%);fill-opacity:1;" d="M 108.292969 57.734375 C 107.949219 57.09375 107.40625 57.316406 107.40625 57.03125 C 107.40625 56.925781 107.515625 56.925781 107.714844 56.925781 C 107.875 56.925781 108.085938 56.960938 108.53125 56.960938 C 108.902344 56.960938 109.285156 56.960938 109.828125 56.925781 C 109.953125 56.914062 109.980469 56.988281 109.980469 57.039062 C 109.980469 57.246094 109.492188 57.175781 109.492188 57.476562 C 109.492188 57.554688 109.511719 57.664062 109.617188 57.882812 L 110.414062 59.535156 C 110.558594 59.828125 110.621094 59.941406 110.6875 59.941406 C 110.742188 59.941406 110.804688 59.871094 110.910156 59.671875 L 111.71875 58.210938 C 111.890625 57.90625 111.878906 57.785156 111.878906 57.722656 C 111.878906 57.132812 111.019531 57.332031 111.019531 57.054688 C 111.019531 56.964844 111.082031 56.917969 111.1875 56.917969 C 111.304688 56.917969 111.492188 56.957031 111.953125 56.957031 C 112.625 56.957031 112.722656 56.917969 112.96875 56.917969 C 113.085938 56.917969 113.128906 56.957031 113.128906 57.019531 C 113.128906 57.261719 112.734375 57.082031 112.207031 58.058594 L 111.046875 60.257812 C 110.957031 60.4375 110.929688 60.5 110.929688 60.820312 L 110.929688 62.144531 C 110.929688 63.261719 112.019531 62.648438 112.019531 63.101562 C 112.019531 63.199219 111.882812 63.207031 111.734375 63.207031 C 111.660156 63.207031 111.519531 63.171875 110.410156 63.171875 C 109.613281 63.171875 109.359375 63.207031 109.109375 63.207031 C 108.964844 63.207031 108.867188 63.191406 108.867188 63.109375 C 108.867188 62.710938 109.832031 63.199219 109.832031 62.070312 L 109.832031 60.917969 C 109.832031 60.621094 109.796875 60.554688 109.6875 60.359375 Z M 108.292969 57.734375 "/>
<path style=" stroke:none;fill-rule:nonzero;fill:rgb(0%,34.117647%,23.921569%);fill-opacity:1;" d="M 121.855469 56.847656 C 123.582031 56.832031 124.90625 57.976562 124.90625 59.859375 C 124.90625 61.105469 124.363281 63.28125 121.539062 63.28125 C 119.757812 63.28125 118.5625 62.082031 118.5625 60.277344 C 118.5625 58.328125 119.742188 56.867188 121.855469 56.847656 Z M 121.796875 62.898438 C 123.320312 62.875 123.820312 61.683594 123.820312 60.210938 C 123.820312 58.246094 122.738281 57.214844 121.597656 57.234375 C 120.101562 57.261719 119.65625 58.488281 119.65625 59.777344 C 119.652344 61.070312 120.207031 62.921875 121.796875 62.898438 Z M 121.796875 62.898438 "/>
<path style=" stroke:none;fill-rule:nonzero;fill:rgb(0%,34.117647%,23.921569%);fill-opacity:1;" d="M 128.628906 59.210938 C 128.628906 59.59375 128.628906 59.65625 129.007812 59.65625 L 129.566406 59.65625 C 130.328125 59.65625 130.355469 58.835938 130.527344 58.835938 C 130.589844 58.835938 130.6875 58.816406 130.699219 59.058594 L 130.761719 60.640625 C 130.769531 60.757812 130.824219 61.074219 130.609375 61.074219 C 130.324219 61.074219 130.574219 60.132812 129.652344 60.132812 L 128.996094 60.132812 C 128.589844 60.132812 128.628906 60.242188 128.628906 60.757812 L 128.628906 62.070312 C 128.628906 63.058594 129.628906 62.835938 129.628906 63.074219 C 129.628906 63.253906 129.441406 63.21875 129.222656 63.21875 C 128.886719 63.21875 128.554688 63.183594 128.167969 63.183594 C 127.894531 63.183594 127.519531 63.21875 127.035156 63.21875 C 126.917969 63.21875 126.863281 63.171875 126.863281 63.121094 C 126.863281 62.710938 127.539062 63.191406 127.539062 62.109375 L 127.539062 57.949219 C 127.539062 57.148438 126.539062 57.433594 126.539062 57.082031 C 126.539062 57 126.609375 56.929688 126.734375 56.929688 C 127.097656 56.929688 127.734375 56.964844 129.089844 56.964844 C 129.722656 56.964844 130.332031 56.929688 131.113281 56.929688 C 131.230469 56.929688 131.292969 57.019531 131.292969 57.097656 L 131.328125 57.976562 C 131.335938 58.09375 131.382812 58.382812 131.175781 58.382812 C 130.761719 58.382812 131.449219 57.34375 129.738281 57.34375 C 128.667969 57.34375 128.632812 57.355469 128.632812 57.96875 L 128.632812 59.210938 Z M 128.628906 59.210938 "/>
<path style=" stroke:none;fill-rule:nonzero;fill:rgb(0%,34.117647%,23.921569%);fill-opacity:1;" d="M 22.664062 68.71875 C 22.664062 68.574219 22.742188 67.792969 22.457031 67.773438 L 19.117188 67.773438 C 17.847656 67.773438 17.804688 68.082031 17.441406 69.210938 C 17.378906 69.417969 17.359375 69.6875 17.09375 69.6875 C 16.96875 69.6875 16.886719 69.542969 16.886719 69.441406 L 17.113281 67.449219 C 17.136719 67.203125 17.113281 66.648438 17.484375 66.648438 C 19.082031 66.648438 20.660156 66.726562 23.300781 66.726562 C 27.011719 66.726562 28.894531 66.648438 29.304688 66.648438 C 29.777344 66.648438 29.878906 66.773438 29.898438 67.242188 L 30 68.886719 C 30.023438 69.089844 30.039062 69.335938 29.777344 69.335938 C 29.019531 69.335938 30.125 67.773438 28.035156 67.773438 L 25.109375 67.773438 C 24.183594 67.773438 24.289062 67.695312 24.289062 68.78125 L 24.289062 79.261719 C 24.289062 80.988281 25.949219 80.308594 25.949219 80.945312 C 25.949219 81.007812 25.96875 81.191406 25.765625 81.191406 C 25.273438 81.191406 24.699219 81.109375 24.105469 81.109375 C 21.808594 81.109375 21.421875 81.191406 21.296875 81.191406 C 21.113281 81.191406 21.050781 81.128906 21.050781 80.921875 C 21.050781 80.429688 22.671875 80.636719 22.671875 79.398438 L 22.671875 68.71875 Z M 22.664062 68.71875 "/>
<path style=" stroke:none;fill-rule:nonzero;fill:rgb(0%,34.117647%,23.921569%);fill-opacity:1;" d="M 34.214844 72.621094 C 34.214844 73.320312 34.175781 73.320312 34.992188 73.320312 L 37.203125 73.320312 C 39.335938 73.320312 38.78125 71.679688 39.277344 71.679688 C 39.441406 71.679688 39.5 71.902344 39.5 72.066406 C 39.5 72.789062 39.460938 73.488281 39.460938 74.140625 C 39.460938 74.671875 39.5 75.210938 39.5 75.765625 C 39.5 75.949219 39.417969 76.035156 39.277344 76.035156 C 38.640625 76.035156 39.339844 74.226562 37.617188 74.226562 L 34.585938 74.226562 C 34.15625 74.226562 34.214844 74.574219 34.214844 74.882812 L 34.214844 78.664062 C 34.214844 79.878906 34.050781 80.371094 35.773438 80.371094 C 40.503906 80.371094 41.199219 78.253906 41.46875 78.253906 C 41.609375 78.253906 41.632812 78.460938 41.632812 78.5 C 41.632812 79.238281 41.101562 79.960938 40.609375 80.492188 C 39.953125 81.230469 39.503906 81.191406 38.601562 81.191406 C 37.042969 81.191406 35.488281 81.066406 33.933594 81.109375 C 33.113281 81.132812 32.253906 81.191406 31.433594 81.191406 C 31.25 81.191406 31.125 81.148438 31.125 80.984375 C 31.164062 80.738281 31.371094 80.777344 32.027344 80.453125 C 32.558594 80.207031 32.597656 79.628906 32.597656 78.664062 L 32.597656 69.296875 C 32.597656 68.371094 32.597656 67.386719 31.492188 67.222656 C 31.328125 67.183594 30.875 67.144531 30.875 66.894531 C 30.875 66.726562 31 66.648438 31.59375 66.648438 C 35.464844 66.648438 36.53125 66.726562 37.390625 66.726562 C 37.804688 66.726562 39.6875 66.648438 40.320312 66.648438 C 40.484375 66.648438 40.527344 66.851562 40.527344 67.097656 C 40.527344 69.378906 40.238281 69.542969 40.113281 69.542969 C 39.625 69.542969 39.949219 68.558594 39.625 68.082031 C 39.09375 67.386719 36.960938 67.511719 36.144531 67.511719 C 34.175781 67.511719 34.21875 67.429688 34.21875 68.804688 L 34.21875 72.621094 Z M 34.214844 72.621094 "/>
<path style=" stroke:none;fill-rule:nonzero;fill:rgb(0%,34.117647%,23.921569%);fill-opacity:1;" d="M 44.335938 70.691406 C 44.335938 66.417969 41.859375 67.613281 41.859375 66.851562 C 41.859375 66.726562 42.066406 66.648438 42.167969 66.648438 C 42.496094 66.648438 42.800781 66.726562 43.132812 66.726562 C 43.441406 66.726562 43.765625 66.648438 44.074219 66.648438 C 44.300781 66.648438 44.484375 66.972656 44.605469 67.121094 L 54.375 78.03125 C 54.5 78.171875 54.582031 78.253906 54.621094 78.253906 C 54.660156 78.253906 54.683594 78.191406 54.683594 78.03125 L 54.683594 69.445312 C 54.683594 66.753906 52.414062 67.53125 52.414062 66.855469 C 52.414062 66.714844 52.515625 66.652344 52.636719 66.652344 C 53.25 66.652344 53.84375 66.730469 54.5 66.730469 C 55.199219 66.730469 56.078125 66.652344 56.574219 66.652344 C 56.695312 66.652344 56.777344 66.714844 56.777344 66.835938 C 56.777344 67.367188 55.566406 67 55.566406 68.5 L 55.566406 80.394531 C 55.566406 80.988281 55.546875 81.273438 55.386719 81.273438 C 55.242188 81.273438 55.035156 81.171875 54.609375 80.699219 L 45.800781 70.757812 C 45.761719 70.714844 45.515625 70.367188 45.375 70.367188 C 45.292969 70.367188 45.230469 70.429688 45.230469 70.835938 L 45.230469 79.238281 C 45.230469 81.085938 47.035156 80.367188 47.035156 80.921875 C 47.035156 81.023438 47.011719 81.191406 46.804688 81.191406 C 46.316406 81.191406 45.738281 81.109375 44.734375 81.109375 C 44.015625 81.109375 42.953125 81.191406 42.8125 81.191406 C 42.566406 81.191406 42.542969 81.066406 42.542969 80.964844 C 42.542969 80.246094 44.347656 81.148438 44.347656 78.277344 L 44.347656 70.691406 Z M 44.335938 70.691406 "/>
<path style=" stroke:none;fill-rule:nonzero;fill:rgb(0%,34.117647%,23.921569%);fill-opacity:1;" d="M 60.398438 70.691406 C 60.398438 66.417969 57.921875 67.613281 57.921875 66.851562 C 57.921875 66.726562 58.125 66.648438 58.226562 66.648438 C 58.554688 66.648438 58.863281 66.726562 59.191406 66.726562 C 59.5 66.726562 59.828125 66.648438 60.132812 66.648438 C 60.363281 66.648438 60.542969 66.972656 60.664062 67.121094 L 70.4375 78.03125 C 70.5625 78.171875 70.640625 78.253906 70.679688 78.253906 C 70.722656 78.253906 70.742188 78.191406 70.742188 78.03125 L 70.742188 69.445312 C 70.742188 66.753906 68.472656 67.53125 68.472656 66.855469 C 68.472656 66.714844 68.574219 66.652344 68.695312 66.652344 C 69.3125 66.652344 69.90625 66.730469 70.5625 66.730469 C 71.257812 66.730469 72.136719 66.652344 72.632812 66.652344 C 72.757812 66.652344 72.835938 66.714844 72.835938 66.835938 C 72.835938 67.367188 71.628906 67 71.628906 68.5 L 71.628906 80.394531 C 71.628906 80.988281 71.605469 81.273438 71.445312 81.273438 C 71.300781 81.273438 71.097656 81.171875 70.667969 80.699219 L 61.863281 70.757812 C 61.820312 70.714844 61.574219 70.367188 61.433594 70.367188 C 61.351562 70.367188 61.289062 70.429688 61.289062 70.835938 L 61.289062 79.238281 C 61.289062 81.085938 63.09375 80.367188 63.09375 80.921875 C 63.09375 81.023438 63.070312 81.191406 62.867188 81.191406 C 62.375 81.191406 61.800781 81.109375 60.792969 81.109375 C 60.074219 81.109375 59.015625 81.191406 58.871094 81.191406 C 58.625 81.191406 58.601562 81.066406 58.601562 80.964844 C 58.601562 80.246094 60.40625 81.148438 60.40625 78.277344 L 60.40625 70.691406 Z M 60.398438 70.691406 "/>
<path style=" stroke:none;fill-rule:nonzero;fill:rgb(0%,34.117647%,23.921569%);fill-opacity:1;" d="M 77.851562 72.621094 C 77.851562 73.320312 77.808594 73.320312 78.625 73.320312 L 80.839844 73.320312 C 82.96875 73.320312 82.417969 71.679688 82.910156 71.679688 C 83.078125 71.679688 83.136719 71.902344 83.136719 72.066406 C 83.136719 72.789062 83.09375 73.488281 83.09375 74.140625 C 83.09375 74.671875 83.136719 75.210938 83.136719 75.765625 C 83.136719 75.949219 83.054688 76.035156 82.910156 76.035156 C 82.277344 76.035156 82.972656 74.226562 81.25 74.226562 L 78.21875 74.226562 C 77.792969 74.226562 77.851562 74.574219 77.851562 74.882812 L 77.851562 78.664062 C 77.851562 79.878906 77.683594 80.371094 79.40625 80.371094 C 84.140625 80.371094 84.835938 78.253906 85.101562 78.253906 C 85.246094 78.253906 85.269531 78.460938 85.269531 78.5 C 85.269531 79.238281 84.738281 79.960938 84.246094 80.492188 C 83.589844 81.230469 83.140625 81.191406 82.238281 81.191406 C 80.679688 81.191406 79.121094 81.066406 77.570312 81.109375 C 76.746094 81.132812 75.890625 81.191406 75.070312 81.191406 C 74.886719 81.191406 74.761719 81.148438 74.761719 80.984375 C 74.800781 80.738281 75.007812 80.777344 75.664062 80.453125 C 76.195312 80.207031 76.238281 79.628906 76.238281 78.664062 L 76.238281 69.296875 C 76.238281 68.371094 76.238281 67.386719 75.132812 67.222656 C 74.964844 67.183594 74.515625 67.144531 74.515625 66.894531 C 74.515625 66.726562 74.640625 66.648438 75.234375 66.648438 C 79.105469 66.648438 80.171875 66.726562 81.03125 66.726562 C 81.441406 66.726562 83.328125 66.648438 83.960938 66.648438 C 84.125 66.648438 84.164062 66.851562 84.164062 67.097656 C 84.164062 69.378906 83.878906 69.542969 83.753906 69.542969 C 83.265625 69.542969 83.589844 68.558594 83.265625 68.082031 C 82.734375 67.386719 80.597656 67.511719 79.78125 67.511719 C 77.8125 67.511719 77.859375 67.429688 77.859375 68.804688 L 77.859375 72.621094 Z M 77.851562 72.621094 "/>
<path style=" stroke:none;fill-rule:nonzero;fill:rgb(0%,34.117647%,23.921569%);fill-opacity:1;" d="M 86.335938 77.550781 C 86.253906 77.140625 86.359375 76.914062 86.558594 76.914062 C 86.84375 76.914062 86.84375 77.160156 86.945312 77.589844 C 87.191406 78.535156 88.417969 80.671875 91.25 80.671875 C 93.195312 80.671875 95.101562 79.582031 95.101562 77.425781 C 95.101562 73.460938 86.785156 75.679688 86.785156 70.316406 C 86.785156 67.707031 88.976562 66.453125 91.335938 66.453125 C 93.8125 66.453125 94.488281 67.191406 94.777344 67.191406 C 94.957031 67.191406 95 66.96875 95.203125 66.96875 C 95.328125 66.96875 95.425781 67.03125 95.449219 67.253906 L 95.757812 70.046875 C 95.78125 70.214844 95.734375 70.359375 95.53125 70.359375 C 95.308594 70.359375 95.160156 69.929688 95.101562 69.738281 C 94.484375 67.972656 92.992188 67.066406 91.1875 67.066406 C 89.566406 67.066406 87.847656 67.847656 87.847656 69.738281 C 87.847656 73.601562 96.164062 71.34375 96.164062 77.015625 C 96.164062 78.738281 94.953125 81.328125 90.304688 81.328125 C 88.785156 81.328125 86.925781 80.566406 86.839844 80.199219 Z M 86.335938 77.550781 "/>
<path style=" stroke:none;fill-rule:nonzero;fill:rgb(0%,34.117647%,23.921569%);fill-opacity:1;" d="M 97.847656 77.550781 C 97.765625 77.140625 97.867188 76.914062 98.070312 76.914062 C 98.355469 76.914062 98.355469 77.160156 98.457031 77.589844 C 98.703125 78.535156 99.929688 80.671875 102.761719 80.671875 C 104.707031 80.671875 106.613281 79.582031 106.613281 77.425781 C 106.613281 73.460938 98.296875 75.679688 98.296875 70.316406 C 98.296875 67.707031 100.488281 66.453125 102.847656 66.453125 C 105.324219 66.453125 106 67.191406 106.289062 67.191406 C 106.46875 67.191406 106.511719 66.96875 106.714844 66.96875 C 106.839844 66.96875 106.9375 67.03125 106.960938 67.253906 L 107.269531 70.046875 C 107.292969 70.214844 107.246094 70.359375 107.042969 70.359375 C 106.816406 70.359375 106.671875 69.929688 106.613281 69.738281 C 105.996094 67.972656 104.5 67.066406 102.699219 67.066406 C 101.078125 67.066406 99.359375 67.847656 99.359375 69.738281 C 99.359375 73.601562 107.675781 71.34375 107.675781 77.015625 C 107.675781 78.738281 106.464844 81.328125 101.816406 81.328125 C 100.296875 81.328125 98.4375 80.566406 98.351562 80.199219 Z M 97.847656 77.550781 "/>
<path style=" stroke:none;fill-rule:nonzero;fill:rgb(0%,34.117647%,23.921569%);fill-opacity:1;" d="M 112.394531 72.621094 C 112.394531 73.320312 112.351562 73.320312 113.171875 73.320312 L 115.382812 73.320312 C 117.511719 73.320312 116.960938 71.679688 117.449219 71.679688 C 117.617188 71.679688 117.679688 71.902344 117.679688 72.066406 C 117.679688 72.789062 117.636719 73.488281 117.636719 74.140625 C 117.636719 74.671875 117.679688 75.210938 117.679688 75.765625 C 117.679688 75.949219 117.597656 76.035156 117.449219 76.035156 C 116.816406 76.035156 117.511719 74.226562 115.789062 74.226562 L 112.757812 74.226562 C 112.332031 74.226562 112.390625 74.574219 112.390625 74.882812 L 112.390625 78.664062 C 112.390625 79.878906 112.222656 80.371094 113.945312 80.371094 C 118.679688 80.371094 119.375 78.253906 119.640625 78.253906 C 119.785156 78.253906 119.808594 78.460938 119.808594 78.5 C 119.808594 79.238281 119.277344 79.960938 118.785156 80.492188 C 118.128906 81.230469 117.679688 81.191406 116.777344 81.191406 C 115.21875 81.191406 113.660156 81.066406 112.109375 81.109375 C 111.285156 81.132812 110.429688 81.191406 109.609375 81.191406 C 109.425781 81.191406 109.300781 81.148438 109.300781 80.984375 C 109.339844 80.738281 109.546875 80.777344 110.203125 80.453125 C 110.734375 80.207031 110.777344 79.628906 110.777344 78.664062 L 110.777344 69.296875 C 110.777344 68.371094 110.777344 67.386719 109.671875 67.222656 C 109.503906 67.183594 109.054688 67.144531 109.054688 66.894531 C 109.054688 66.726562 109.179688 66.648438 109.773438 66.648438 C 113.644531 66.648438 114.710938 66.726562 115.570312 66.726562 C 115.980469 66.726562 117.867188 66.648438 118.5 66.648438 C 118.664062 66.648438 118.703125 66.851562 118.703125 67.097656 C 118.703125 69.378906 118.417969 69.542969 118.292969 69.542969 C 117.804688 69.542969 118.128906 68.558594 117.804688 68.082031 C 117.273438 67.386719 115.136719 67.511719 114.320312 67.511719 C 112.351562 67.511719 112.398438 67.429688 112.398438 68.804688 L 112.398438 72.621094 Z M 112.394531 72.621094 "/>
<path style=" stroke:none;fill-rule:nonzero;fill:rgb(0%,34.117647%,23.921569%);fill-opacity:1;" d="M 123.90625 72.621094 C 123.90625 73.320312 123.863281 73.320312 124.679688 73.320312 L 126.894531 73.320312 C 129.023438 73.320312 128.472656 71.679688 128.960938 71.679688 C 129.128906 71.679688 129.191406 71.902344 129.191406 72.066406 C 129.191406 72.789062 129.148438 73.488281 129.148438 74.140625 C 129.148438 74.671875 129.191406 75.210938 129.191406 75.765625 C 129.191406 75.949219 129.109375 76.035156 128.960938 76.035156 C 128.328125 76.035156 129.023438 74.226562 127.300781 74.226562 L 124.269531 74.226562 C 123.84375 74.226562 123.898438 74.574219 123.898438 74.882812 L 123.898438 78.664062 C 123.898438 79.878906 123.734375 80.371094 125.457031 80.371094 C 130.1875 80.371094 130.886719 78.253906 131.152344 78.253906 C 131.296875 78.253906 131.320312 78.460938 131.320312 78.5 C 131.320312 79.238281 130.789062 79.960938 130.296875 80.492188 C 129.640625 81.230469 129.191406 81.191406 128.289062 81.191406 C 126.730469 81.191406 125.171875 81.066406 123.617188 81.109375 C 122.796875 81.132812 121.941406 81.191406 121.121094 81.191406 C 120.9375 81.191406 120.8125 81.148438 120.8125 80.984375 C 120.851562 80.738281 121.058594 80.777344 121.714844 80.453125 C 122.246094 80.207031 122.289062 79.628906 122.289062 78.664062 L 122.289062 69.296875 C 122.289062 68.371094 122.289062 67.386719 121.183594 67.222656 C 121.015625 67.183594 120.566406 67.144531 120.566406 66.894531 C 120.566406 66.726562 120.691406 66.648438 121.285156 66.648438 C 125.15625 66.648438 126.222656 66.726562 127.082031 66.726562 C 127.492188 66.726562 129.378906 66.648438 130.011719 66.648438 C 130.175781 66.648438 130.214844 66.851562 130.214844 67.097656 C 130.214844 69.378906 129.929688 69.542969 129.804688 69.542969 C 129.316406 69.542969 129.640625 68.558594 129.316406 68.082031 C 128.785156 67.386719 126.648438 67.511719 125.832031 67.511719 C 123.863281 67.511719 123.910156 67.429688 123.910156 68.804688 L 123.910156 72.621094 Z M 123.90625 72.621094 "/>
<path style=" stroke:none;fill-rule:nonzero;fill:rgb(0%,34.117647%,23.921569%);fill-opacity:1;" d="M 22.359375 89.023438 C 22.359375 89.996094 23.152344 89.710938 23.152344 90.011719 C 23.152344 90.109375 23.089844 90.105469 22.992188 90.105469 C 22.742188 90.105469 22.292969 90.074219 21.976562 90.074219 C 21.699219 90.074219 21.402344 90.105469 21.011719 90.105469 C 20.902344 90.105469 20.859375 90.074219 20.859375 90.023438 C 20.859375 89.753906 21.417969 89.957031 21.417969 89.214844 L 21.417969 87.835938 C 21.417969 87.515625 21.441406 87.429688 21.105469 87.429688 L 19.066406 87.429688 C 18.710938 87.429688 18.691406 87.507812 18.691406 87.839844 L 18.691406 89.046875 C 18.691406 89.996094 19.636719 89.722656 19.636719 89.996094 C 19.636719 90.039062 19.648438 90.101562 19.410156 90.101562 C 19.097656 90.101562 18.84375 90.070312 18.292969 90.070312 C 17.972656 90.070312 17.648438 90.101562 17.269531 90.101562 C 17.175781 90.101562 17.101562 90.089844 17.101562 89.984375 C 17.101562 89.679688 17.753906 89.953125 17.753906 89.003906 L 17.753906 85.589844 C 17.753906 84.753906 16.890625 85.09375 16.890625 84.800781 C 16.890625 84.6875 17.117188 84.679688 17.265625 84.679688 C 17.492188 84.679688 17.726562 84.710938 18.125 84.710938 C 18.582031 84.710938 18.886719 84.679688 19.109375 84.679688 C 19.21875 84.679688 19.285156 84.722656 19.285156 84.796875 C 19.285156 85.035156 18.695312 84.8125 18.695312 85.496094 L 18.695312 86.714844 C 18.695312 86.917969 18.726562 87.019531 18.886719 87.019531 L 21.152344 87.019531 C 21.378906 87.019531 21.421875 86.84375 21.421875 86.671875 L 21.421875 85.59375 C 21.421875 84.753906 20.582031 85.027344 20.582031 84.808594 C 20.582031 84.667969 20.648438 84.6875 20.757812 84.6875 C 21.070312 84.6875 21.269531 84.71875 21.742188 84.71875 C 22.140625 84.71875 22.421875 84.6875 22.753906 84.6875 C 22.882812 84.6875 22.914062 84.707031 22.914062 84.78125 C 22.914062 85.070312 22.363281 84.738281 22.363281 85.492188 L 22.363281 89.023438 Z M 22.359375 89.023438 "/>
<path style=" stroke:none;fill-rule:nonzero;fill:rgb(0%,34.117647%,23.921569%);fill-opacity:1;" d="M 25.582031 86.648438 C 25.582031 86.976562 25.582031 87.03125 25.914062 87.03125 L 26.394531 87.03125 C 27.050781 87.03125 27.074219 86.324219 27.230469 86.324219 C 27.28125 86.324219 27.367188 86.3125 27.375 86.515625 L 27.429688 87.882812 C 27.4375 87.980469 27.484375 88.257812 27.300781 88.257812 C 27.054688 88.257812 27.269531 87.449219 26.476562 87.449219 L 25.90625 87.449219 C 25.554688 87.449219 25.585938 87.539062 25.585938 87.984375 L 25.585938 88.964844 C 25.585938 89.441406 25.554688 89.71875 26.105469 89.71875 C 28 89.71875 27.894531 88.714844 28.183594 88.714844 C 28.214844 88.714844 28.269531 88.738281 28.269531 88.882812 C 28.269531 89.484375 27.816406 90.109375 27.191406 90.109375 C 26.03125 90.109375 25.574219 90.078125 25.1875 90.078125 C 24.953125 90.078125 24.632812 90.109375 24.210938 90.109375 C 24.113281 90.109375 24.0625 90.070312 24.0625 90.027344 C 24.0625 89.671875 24.644531 90.089844 24.644531 89.152344 L 24.644531 85.566406 C 24.644531 84.878906 23.78125 85.125 23.78125 84.816406 C 23.78125 84.75 23.84375 84.6875 23.953125 84.6875 C 24.265625 84.6875 24.8125 84.71875 25.984375 84.71875 C 26.527344 84.71875 27.054688 84.6875 27.722656 84.6875 C 27.824219 84.6875 27.875 84.761719 27.875 84.828125 L 27.90625 85.589844 C 27.917969 85.6875 27.953125 85.945312 27.777344 85.945312 C 27.421875 85.945312 28.015625 85.046875 26.542969 85.046875 C 25.617188 85.046875 25.585938 85.058594 25.585938 85.585938 L 25.585938 86.648438 Z M 25.582031 86.648438 "/>
<path style=" stroke:none;fill-rule:nonzero;fill:rgb(0%,34.117647%,23.921569%);fill-opacity:1;" d="M 30.9375 88.21875 C 30.808594 88.21875 30.648438 88.25 30.472656 88.753906 C 30.421875 88.90625 30.3125 89.175781 30.3125 89.359375 C 30.3125 89.910156 31.140625 89.789062 31.140625 89.996094 C 31.140625 90.15625 30.902344 90.101562 30.742188 90.101562 C 30.496094 90.101562 30.269531 90.070312 30.023438 90.070312 C 29.796875 90.070312 29.574219 90.101562 29.347656 90.101562 C 29.242188 90.101562 29.121094 90.117188 29.121094 90.015625 C 29.121094 89.84375 29.511719 89.886719 29.703125 89.457031 L 31.773438 84.820312 C 31.828125 84.699219 31.867188 84.550781 31.964844 84.550781 C 32.03125 84.550781 32.050781 84.566406 32.148438 84.796875 L 34.210938 89.488281 C 34.457031 90.035156 34.867188 89.734375 34.867188 89.984375 C 34.867188 90.117188 34.800781 90.101562 34.589844 90.101562 C 34.3125 90.101562 34.105469 90.070312 33.601562 90.070312 C 33.269531 90.070312 32.984375 90.101562 32.765625 90.101562 C 32.625 90.101562 32.527344 90.117188 32.527344 90.007812 C 32.527344 89.785156 33.070312 89.871094 33.070312 89.402344 C 33.070312 89.234375 33.019531 89.09375 32.933594 88.890625 C 32.683594 88.289062 32.644531 88.214844 32.441406 88.214844 L 30.9375 88.214844 Z M 32.207031 87.800781 C 32.34375 87.800781 32.453125 87.808594 32.453125 87.734375 C 32.453125 87.625 32.40625 87.542969 32.367188 87.453125 L 31.742188 86.066406 C 31.695312 86.003906 31.71875 86.003906 31.679688 86.003906 C 31.664062 86.003906 31.632812 86.011719 31.59375 86.089844 L 31.003906 87.449219 C 30.964844 87.542969 30.921875 87.621094 30.921875 87.730469 C 30.921875 87.804688 31.027344 87.796875 31.164062 87.796875 L 32.207031 87.796875 Z M 32.207031 87.800781 "/>
<path style=" stroke:none;fill-rule:nonzero;fill:rgb(0%,34.117647%,23.921569%);fill-opacity:1;" d="M 37.351562 88.960938 C 37.351562 89.433594 37.320312 89.710938 37.871094 89.710938 C 39.765625 89.710938 39.660156 88.710938 39.949219 88.710938 C 39.980469 88.710938 40.035156 88.734375 40.035156 88.878906 C 40.035156 89.480469 39.585938 90.105469 38.960938 90.105469 C 37.796875 90.105469 37.339844 90.074219 36.953125 90.074219 C 36.71875 90.074219 36.398438 90.105469 35.976562 90.105469 C 35.878906 90.105469 35.832031 90.066406 35.832031 90.023438 C 35.832031 89.667969 36.410156 90.085938 36.410156 89.148438 L 36.410156 85.523438 C 36.410156 84.871094 35.550781 85.078125 35.550781 84.8125 C 35.550781 84.746094 35.632812 84.679688 35.792969 84.679688 C 36.097656 84.679688 36.542969 84.710938 36.835938 84.710938 C 37.484375 84.710938 37.574219 84.679688 37.695312 84.679688 C 37.855469 84.679688 37.890625 84.691406 37.890625 84.78125 C 37.890625 85.070312 37.347656 84.789062 37.347656 85.371094 L 37.347656 88.960938 Z M 37.351562 88.960938 "/>
<path style=" stroke:none;fill-rule:nonzero;fill:rgb(0%,34.117647%,23.921569%);fill-opacity:1;" d="M 42.222656 85.539062 C 42.222656 85.175781 42.144531 85.132812 41.832031 85.132812 L 41.191406 85.132812 C 40.328125 85.132812 40.558594 86.136719 40.214844 86.136719 C 40.050781 86.136719 40.097656 85.964844 40.113281 85.867188 L 40.234375 84.855469 C 40.246094 84.78125 40.246094 84.671875 40.355469 84.671875 C 41.066406 84.671875 41.578125 84.703125 42.695312 84.703125 C 43.8125 84.703125 44.324219 84.671875 45.035156 84.671875 C 45.148438 84.671875 45.148438 84.78125 45.15625 84.855469 L 45.238281 85.558594 C 45.253906 85.652344 45.335938 85.949219 45.140625 85.949219 C 44.835938 85.949219 45.078125 85.097656 44.199219 85.128906 L 43.546875 85.128906 C 43.234375 85.128906 43.160156 85.167969 43.160156 85.535156 L 43.160156 89 C 43.160156 89.945312 44.136719 89.722656 44.136719 89.9375 C 44.136719 90.121094 43.984375 90.097656 43.761719 90.097656 C 43.457031 90.097656 43.203125 90.066406 42.691406 90.066406 C 42.175781 90.066406 41.925781 90.097656 41.621094 90.097656 C 41.480469 90.097656 41.351562 90.105469 41.351562 89.9375 C 41.351562 89.636719 42.214844 90.003906 42.214844 89.09375 L 42.214844 85.539062 Z M 42.222656 85.539062 "/>
<path style=" stroke:none;fill-rule:nonzero;fill:rgb(0%,34.117647%,23.921569%);fill-opacity:1;" d="M 51.53125 89.023438 C 51.53125 89.996094 52.328125 89.710938 52.328125 90.011719 C 52.328125 90.109375 52.265625 90.105469 52.167969 90.105469 C 51.917969 90.105469 51.464844 90.074219 51.148438 90.074219 C 50.871094 90.074219 50.578125 90.105469 50.183594 90.105469 C 50.078125 90.105469 50.03125 90.074219 50.03125 90.023438 C 50.03125 89.753906 50.589844 89.957031 50.589844 89.214844 L 50.589844 87.835938 C 50.589844 87.515625 50.613281 87.429688 50.277344 87.429688 L 48.238281 87.429688 C 47.886719 87.429688 47.863281 87.507812 47.863281 87.839844 L 47.863281 89.046875 C 47.863281 89.996094 48.808594 89.722656 48.808594 89.996094 C 48.808594 90.039062 48.824219 90.101562 48.582031 90.101562 C 48.269531 90.101562 48.015625 90.070312 47.464844 90.070312 C 47.144531 90.070312 46.824219 90.101562 46.445312 90.101562 C 46.351562 90.101562 46.273438 90.089844 46.273438 89.984375 C 46.273438 89.679688 46.925781 89.953125 46.925781 89.003906 L 46.925781 85.589844 C 46.925781 84.753906 46.066406 85.09375 46.066406 84.800781 C 46.066406 84.6875 46.292969 84.679688 46.441406 84.679688 C 46.667969 84.679688 46.898438 84.710938 47.296875 84.710938 C 47.757812 84.710938 48.058594 84.679688 48.285156 84.679688 C 48.390625 84.679688 48.457031 84.722656 48.457031 84.796875 C 48.457031 85.035156 47.867188 84.8125 47.867188 85.496094 L 47.867188 86.714844 C 47.867188 86.917969 47.898438 87.019531 48.058594 87.019531 L 50.328125 87.019531 C 50.550781 87.019531 50.59375 86.84375 50.59375 86.671875 L 50.59375 85.59375 C 50.59375 84.753906 49.757812 85.027344 49.757812 84.808594 C 49.757812 84.667969 49.824219 84.6875 49.929688 84.6875 C 50.242188 84.6875 50.445312 84.71875 50.917969 84.71875 C 51.3125 84.71875 51.59375 84.6875 51.925781 84.6875 C 52.054688 84.6875 52.085938 84.707031 52.085938 84.78125 C 52.085938 85.070312 51.539062 84.738281 51.539062 85.492188 L 51.539062 89.023438 Z M 51.53125 89.023438 "/>
<path style=" stroke:none;fill-rule:nonzero;fill:rgb(0%,34.117647%,23.921569%);fill-opacity:1;" d="M 56.054688 88.53125 C 56.03125 88.421875 55.957031 88.199219 56.148438 88.199219 C 56.269531 88.199219 56.285156 88.265625 56.316406 88.371094 C 56.5625 89.105469 57.035156 89.800781 57.882812 89.800781 C 58.476562 89.800781 58.9375 89.433594 58.9375 88.820312 C 58.9375 88.167969 58.457031 88.070312 57.226562 87.527344 C 56.574219 87.238281 56.121094 86.9375 56.121094 86.136719 C 56.121094 85.253906 56.734375 84.609375 57.625 84.609375 C 58.25 84.609375 58.570312 84.910156 58.804688 84.910156 C 58.902344 84.910156 59.09375 84.789062 59.191406 84.789062 C 59.308594 84.789062 59.285156 84.90625 59.300781 85.078125 L 59.382812 86.105469 C 59.398438 86.273438 59.375 86.363281 59.210938 86.363281 C 59.035156 86.363281 58.921875 84.941406 57.609375 84.941406 C 57.101562 84.941406 56.757812 85.230469 56.757812 85.746094 C 56.757812 86.261719 57.179688 86.359375 58.207031 86.8125 C 59.023438 87.171875 59.527344 87.5 59.527344 88.472656 C 59.527344 89.476562 58.828125 90.160156 57.820312 90.160156 C 57.359375 90.160156 56.964844 89.976562 56.523438 89.878906 C 56.332031 89.832031 56.339844 89.769531 56.300781 89.585938 Z M 56.054688 88.53125 "/>
<path style=" stroke:none;fill-rule:nonzero;fill:rgb(0%,34.117647%,23.921569%);fill-opacity:1;" d="M 65.605469 86.324219 C 65.617188 86.398438 65.648438 86.578125 65.511719 86.578125 C 65.390625 86.578125 65.339844 86.417969 65.285156 86.320312 C 64.902344 85.585938 64.230469 84.917969 63.34375 84.917969 C 62.21875 84.917969 61.601562 85.992188 61.601562 87.019531 C 61.601562 88.097656 62.214844 89.613281 63.671875 89.613281 C 64.855469 89.613281 65.378906 88.613281 65.574219 88.613281 C 65.617188 88.613281 65.683594 88.652344 65.683594 88.695312 C 65.683594 89 64.875 90.160156 63.246094 90.160156 C 61.003906 90.160156 60.660156 88.199219 60.660156 87.589844 C 60.660156 86.300781 61.445312 84.609375 63.375 84.609375 C 64.296875 84.609375 64.886719 85.074219 65.117188 85.074219 C 65.261719 85.074219 65.265625 84.820312 65.375 84.820312 C 65.414062 84.820312 65.46875 84.828125 65.46875 84.863281 Z M 65.605469 86.324219 "/>
<path style=" stroke:none;fill-rule:nonzero;fill:rgb(0%,34.117647%,23.921569%);fill-opacity:1;" d="M 68.515625 89.152344 C 68.515625 90.097656 69.375 89.742188 69.375 89.992188 C 69.375 90.074219 69.308594 90.105469 69.128906 90.105469 C 68.847656 90.105469 68.5625 90.074219 67.96875 90.074219 C 67.636719 90.074219 67.3125 90.105469 67.109375 90.105469 C 67.042969 90.105469 67.027344 90.054688 67.027344 90.011719 C 67.027344 89.742188 67.574219 89.945312 67.574219 89.214844 L 67.574219 85.535156 C 67.574219 84.839844 66.714844 85.054688 66.714844 84.785156 C 66.714844 84.65625 66.90625 84.675781 66.972656 84.675781 C 67.269531 84.675781 67.570312 84.707031 67.832031 84.707031 C 68.109375 84.707031 68.382812 84.675781 68.820312 84.675781 C 69.046875 84.675781 69.089844 84.691406 69.089844 84.785156 C 69.089844 85.042969 68.515625 84.769531 68.515625 85.496094 Z M 68.515625 89.152344 "/>
<path style=" stroke:none;fill-rule:nonzero;fill:rgb(0%,34.117647%,23.921569%);fill-opacity:1;" d="M 71.910156 86.648438 C 71.910156 86.976562 71.910156 87.03125 72.238281 87.03125 L 72.722656 87.03125 C 73.378906 87.03125 73.398438 86.324219 73.554688 86.324219 C 73.609375 86.324219 73.695312 86.3125 73.703125 86.515625 L 73.757812 87.882812 C 73.765625 87.980469 73.808594 88.257812 73.628906 88.257812 C 73.382812 88.257812 73.597656 87.449219 72.800781 87.449219 L 72.234375 87.449219 C 71.882812 87.449219 71.914062 87.539062 71.914062 87.984375 L 71.914062 88.964844 C 71.914062 89.441406 71.882812 89.71875 72.429688 89.71875 C 74.328125 89.71875 74.222656 88.714844 74.511719 88.714844 C 74.542969 88.714844 74.597656 88.738281 74.597656 88.882812 C 74.597656 89.484375 74.144531 90.109375 73.519531 90.109375 C 72.359375 90.109375 71.898438 90.078125 71.515625 90.078125 C 71.28125 90.078125 70.957031 90.109375 70.539062 90.109375 C 70.441406 90.109375 70.390625 90.070312 70.390625 90.027344 C 70.390625 89.671875 70.972656 90.089844 70.972656 89.152344 L 70.972656 85.566406 C 70.972656 84.878906 70.109375 85.125 70.109375 84.816406 C 70.109375 84.75 70.171875 84.6875 70.28125 84.6875 C 70.59375 84.6875 71.140625 84.71875 72.3125 84.71875 C 72.855469 84.71875 73.382812 84.6875 74.050781 84.6875 C 74.148438 84.6875 74.203125 84.761719 74.203125 84.828125 L 74.234375 85.589844 C 74.242188 85.6875 74.277344 85.945312 74.105469 85.945312 C 73.746094 85.945312 74.339844 85.046875 72.867188 85.046875 C 71.945312 85.046875 71.914062 85.058594 71.914062 85.585938 L 71.914062 86.648438 Z M 71.910156 86.648438 "/>
<path style=" stroke:none;fill-rule:nonzero;fill:rgb(0%,34.117647%,23.921569%);fill-opacity:1;" d="M 76.246094 86.148438 C 76.246094 84.675781 75.390625 85.179688 75.390625 84.808594 C 75.390625 84.738281 75.429688 84.675781 75.519531 84.675781 C 75.667969 84.675781 75.800781 84.707031 75.949219 84.707031 C 76.148438 84.707031 76.347656 84.675781 76.75 84.675781 C 76.996094 84.675781 76.902344 84.730469 77.042969 84.878906 L 80.113281 88.257812 C 80.210938 88.367188 80.304688 88.460938 80.347656 88.460938 C 80.394531 88.460938 80.410156 88.367188 80.410156 88.175781 L 80.410156 85.625 C 80.410156 84.925781 79.480469 85.066406 79.480469 84.816406 C 79.480469 84.761719 79.5 84.6875 79.601562 84.6875 C 79.71875 84.6875 79.945312 84.71875 80.46875 84.71875 C 80.953125 84.71875 81.21875 84.6875 81.285156 84.6875 C 81.433594 84.6875 81.433594 84.761719 81.433594 84.785156 C 81.433594 85.011719 80.78125 84.828125 80.78125 85.636719 L 80.78125 89.933594 C 80.78125 90.101562 80.78125 90.160156 80.6875 90.160156 C 80.582031 90.160156 80.546875 90.117188 80.492188 90.054688 L 76.820312 86.070312 C 76.765625 86.007812 76.71875 85.96875 76.679688 85.96875 C 76.636719 85.96875 76.617188 86.023438 76.617188 86.089844 L 76.617188 88.695312 C 76.617188 90.167969 77.59375 89.644531 77.59375 90.007812 C 77.59375 90.117188 77.402344 90.105469 77.304688 90.105469 C 76.929688 90.105469 76.671875 90.074219 76.402344 90.074219 C 76.160156 90.074219 75.953125 90.105469 75.746094 90.105469 C 75.664062 90.105469 75.511719 90.148438 75.511719 90.011719 C 75.511719 89.707031 76.242188 89.84375 76.242188 89.0625 L 76.242188 86.148438 Z M 76.246094 86.148438 "/>
<path style=" stroke:none;fill-rule:nonzero;fill:rgb(0%,34.117647%,23.921569%);fill-opacity:1;" d="M 87.417969 86.324219 C 87.429688 86.398438 87.460938 86.578125 87.324219 86.578125 C 87.207031 86.578125 87.152344 86.417969 87.097656 86.320312 C 86.714844 85.585938 86.046875 84.917969 85.15625 84.917969 C 84.03125 84.917969 83.414062 85.992188 83.414062 87.019531 C 83.414062 88.097656 84.027344 89.613281 85.488281 89.613281 C 86.671875 89.613281 87.191406 88.613281 87.386719 88.613281 C 87.429688 88.613281 87.496094 88.652344 87.496094 88.695312 C 87.496094 89 86.6875 90.160156 85.058594 90.160156 C 82.816406 90.160156 82.472656 88.199219 82.472656 87.589844 C 82.472656 86.300781 83.261719 84.609375 85.1875 84.609375 C 86.113281 84.609375 86.699219 85.074219 86.929688 85.074219 C 87.074219 85.074219 87.082031 84.820312 87.1875 84.820312 C 87.226562 84.820312 87.28125 84.828125 87.28125 84.863281 Z M 87.417969 86.324219 "/>
<path style=" stroke:none;fill-rule:nonzero;fill:rgb(0%,34.117647%,23.921569%);fill-opacity:1;" d="M 90.179688 86.648438 C 90.179688 86.976562 90.179688 87.03125 90.507812 87.03125 L 90.992188 87.03125 C 91.648438 87.03125 91.667969 86.324219 91.824219 86.324219 C 91.878906 86.324219 91.964844 86.3125 91.96875 86.515625 L 92.023438 87.882812 C 92.03125 87.980469 92.074219 88.257812 91.890625 88.257812 C 91.648438 88.257812 91.859375 87.449219 91.066406 87.449219 L 90.5 87.449219 C 90.148438 87.449219 90.179688 87.539062 90.179688 87.984375 L 90.179688 88.964844 C 90.179688 89.441406 90.148438 89.71875 90.695312 89.71875 C 92.59375 89.71875 92.484375 88.714844 92.777344 88.714844 C 92.808594 88.714844 92.859375 88.738281 92.859375 88.882812 C 92.859375 89.484375 92.410156 90.109375 91.785156 90.109375 C 90.625 90.109375 90.164062 90.078125 89.78125 90.078125 C 89.542969 90.078125 89.222656 90.109375 88.804688 90.109375 C 88.707031 90.109375 88.660156 90.070312 88.660156 90.027344 C 88.660156 89.671875 89.242188 90.089844 89.242188 89.152344 L 89.242188 85.566406 C 89.242188 84.878906 88.378906 85.125 88.378906 84.816406 C 88.378906 84.75 88.441406 84.6875 88.550781 84.6875 C 88.863281 84.6875 89.410156 84.71875 90.578125 84.71875 C 91.121094 84.71875 91.652344 84.6875 92.320312 84.6875 C 92.417969 84.6875 92.472656 84.761719 92.472656 84.828125 L 92.503906 85.589844 C 92.511719 85.6875 92.546875 85.945312 92.375 85.945312 C 92.015625 85.945312 92.609375 85.046875 91.136719 85.046875 C 90.214844 85.046875 90.183594 85.058594 90.183594 85.585938 L 90.183594 86.648438 Z M 90.179688 86.648438 "/>
<path style=" stroke:none;fill-rule:nonzero;fill:rgb(0%,34.117647%,23.921569%);fill-opacity:1;" d="M 101.445312 86.324219 C 101.453125 86.398438 101.484375 86.578125 101.351562 86.578125 C 101.230469 86.578125 101.175781 86.417969 101.121094 86.320312 C 100.738281 85.585938 100.070312 84.917969 99.179688 84.917969 C 98.054688 84.917969 97.441406 85.992188 97.441406 87.019531 C 97.441406 88.097656 98.050781 89.613281 99.511719 89.613281 C 100.695312 89.613281 101.214844 88.613281 101.414062 88.613281 C 101.453125 88.613281 101.519531 88.652344 101.519531 88.695312 C 101.519531 89 100.710938 90.160156 99.082031 90.160156 C 96.84375 90.160156 96.5 88.199219 96.5 87.589844 C 96.5 86.300781 97.285156 84.609375 99.210938 84.609375 C 100.136719 84.609375 100.726562 85.074219 100.953125 85.074219 C 101.101562 85.074219 101.105469 84.820312 101.210938 84.820312 C 101.253906 84.820312 101.304688 84.828125 101.304688 84.863281 Z M 101.445312 86.324219 "/>
<path style=" stroke:none;fill-rule:nonzero;fill:rgb(0%,34.117647%,23.921569%);fill-opacity:1;" d="M 104.203125 86.648438 C 104.203125 86.976562 104.203125 87.03125 104.53125 87.03125 L 105.015625 87.03125 C 105.671875 87.03125 105.695312 86.324219 105.851562 86.324219 C 105.902344 86.324219 105.988281 86.3125 105.992188 86.515625 L 106.046875 87.882812 C 106.054688 87.980469 106.101562 88.257812 105.917969 88.257812 C 105.671875 88.257812 105.886719 87.449219 105.089844 87.449219 L 104.523438 87.449219 C 104.171875 87.449219 104.203125 87.539062 104.203125 87.984375 L 104.203125 88.964844 C 104.203125 89.441406 104.171875 89.71875 104.71875 89.71875 C 106.617188 89.71875 106.511719 88.714844 106.800781 88.714844 C 106.832031 88.714844 106.886719 88.738281 106.886719 88.882812 C 106.886719 89.484375 106.433594 90.109375 105.808594 90.109375 C 104.648438 90.109375 104.1875 90.078125 103.804688 90.078125 C 103.570312 90.078125 103.246094 90.109375 102.828125 90.109375 C 102.730469 90.109375 102.683594 90.070312 102.683594 90.027344 C 102.683594 89.671875 103.265625 90.089844 103.265625 89.152344 L 103.265625 85.566406 C 103.265625 84.878906 102.402344 85.125 102.402344 84.816406 C 102.402344 84.75 102.464844 84.6875 102.574219 84.6875 C 102.886719 84.6875 103.433594 84.71875 104.605469 84.71875 C 105.144531 84.71875 105.675781 84.6875 106.34375 84.6875 C 106.445312 84.6875 106.496094 84.761719 106.496094 84.828125 L 106.527344 85.589844 C 106.539062 85.6875 106.574219 85.945312 106.398438 85.945312 C 106.042969 85.945312 106.636719 85.046875 105.164062 85.046875 C 104.238281 85.046875 104.207031 85.058594 104.207031 85.585938 L 104.207031 86.648438 Z M 104.203125 86.648438 "/>
<path style=" stroke:none;fill-rule:nonzero;fill:rgb(0%,34.117647%,23.921569%);fill-opacity:1;" d="M 108.542969 86.148438 C 108.542969 84.675781 107.683594 85.179688 107.683594 84.808594 C 107.683594 84.738281 107.722656 84.675781 107.8125 84.675781 C 107.960938 84.675781 108.09375 84.707031 108.242188 84.707031 C 108.441406 84.707031 108.640625 84.675781 109.046875 84.675781 C 109.292969 84.675781 109.199219 84.730469 109.335938 84.878906 L 112.40625 88.257812 C 112.503906 88.367188 112.597656 88.460938 112.644531 88.460938 C 112.6875 88.460938 112.707031 88.367188 112.707031 88.175781 L 112.707031 85.625 C 112.707031 84.925781 111.773438 85.066406 111.773438 84.816406 C 111.773438 84.761719 111.796875 84.6875 111.894531 84.6875 C 112.015625 84.6875 112.238281 84.71875 112.765625 84.71875 C 113.246094 84.71875 113.511719 84.6875 113.582031 84.6875 C 113.726562 84.6875 113.726562 84.761719 113.726562 84.785156 C 113.726562 85.011719 113.078125 84.828125 113.078125 85.636719 L 113.078125 89.933594 C 113.078125 90.101562 113.078125 90.160156 112.984375 90.160156 C 112.875 90.160156 112.839844 90.117188 112.785156 90.054688 L 109.113281 86.070312 C 109.058594 86.007812 109.015625 85.96875 108.972656 85.96875 C 108.929688 85.96875 108.910156 86.023438 108.910156 86.089844 L 108.910156 88.695312 C 108.910156 90.167969 109.890625 89.644531 109.890625 90.007812 C 109.890625 90.117188 109.699219 90.105469 109.597656 90.105469 C 109.222656 90.105469 108.964844 90.074219 108.699219 90.074219 C 108.453125 90.074219 108.246094 90.105469 108.042969 90.105469 C 107.957031 90.105469 107.804688 90.148438 107.804688 90.011719 C 107.804688 89.707031 108.535156 89.84375 108.535156 89.0625 L 108.535156 86.148438 Z M 108.542969 86.148438 "/>
<path style=" stroke:none;fill-rule:nonzero;fill:rgb(0%,34.117647%,23.921569%);fill-opacity:1;" d="M 116.871094 85.539062 C 116.871094 85.175781 116.792969 85.132812 116.480469 85.132812 L 115.839844 85.132812 C 114.976562 85.132812 115.207031 86.136719 114.863281 86.136719 C 114.699219 86.136719 114.746094 85.964844 114.761719 85.867188 L 114.882812 84.855469 C 114.894531 84.78125 114.894531 84.671875 115.003906 84.671875 C 115.714844 84.671875 116.226562 84.703125 117.34375 84.703125 C 118.460938 84.703125 118.972656 84.671875 119.683594 84.671875 C 119.796875 84.671875 119.796875 84.78125 119.804688 84.855469 L 119.886719 85.558594 C 119.902344 85.652344 119.984375 85.949219 119.789062 85.949219 C 119.480469 85.949219 119.726562 85.097656 118.847656 85.128906 L 118.195312 85.128906 C 117.882812 85.128906 117.808594 85.167969 117.808594 85.535156 L 117.808594 89 C 117.808594 89.945312 118.785156 89.722656 118.785156 89.9375 C 118.785156 90.121094 118.632812 90.097656 118.410156 90.097656 C 118.101562 90.097656 117.851562 90.066406 117.339844 90.066406 C 116.824219 90.066406 116.574219 90.097656 116.269531 90.097656 C 116.128906 90.097656 116 90.105469 116 89.9375 C 116 89.636719 116.859375 90.003906 116.859375 89.09375 L 116.859375 85.539062 Z M 116.871094 85.539062 "/>
<path style=" stroke:none;fill-rule:nonzero;fill:rgb(0%,34.117647%,23.921569%);fill-opacity:1;" d="M 122.472656 86.648438 C 122.472656 86.976562 122.472656 87.03125 122.800781 87.03125 L 123.285156 87.03125 C 123.941406 87.03125 123.960938 86.324219 124.117188 86.324219 C 124.171875 86.324219 124.257812 86.3125 124.261719 86.515625 L 124.316406 87.882812 C 124.324219 87.980469 124.367188 88.257812 124.1875 88.257812 C 123.941406 88.257812 124.15625 87.449219 123.359375 87.449219 L 122.792969 87.449219 C 122.441406 87.449219 122.472656 87.539062 122.472656 87.984375 L 122.472656 88.964844 C 122.472656 89.441406 122.441406 89.71875 122.988281 89.71875 C 124.886719 89.71875 124.78125 88.714844 125.070312 88.714844 C 125.101562 88.714844 125.15625 88.738281 125.15625 88.882812 C 125.15625 89.484375 124.703125 90.109375 124.078125 90.109375 C 122.917969 90.109375 122.457031 90.078125 122.074219 90.078125 C 121.839844 90.078125 121.515625 90.109375 121.097656 90.109375 C 121 90.109375 120.953125 90.070312 120.953125 90.027344 C 120.953125 89.671875 121.535156 90.089844 121.535156 89.152344 L 121.535156 85.566406 C 121.535156 84.878906 120.671875 85.125 120.671875 84.816406 C 120.671875 84.75 120.734375 84.6875 120.84375 84.6875 C 121.15625 84.6875 121.703125 84.71875 122.875 84.71875 C 123.417969 84.71875 123.945312 84.6875 124.613281 84.6875 C 124.710938 84.6875 124.765625 84.761719 124.765625 84.828125 L 124.796875 85.589844 C 124.804688 85.6875 124.84375 85.945312 124.667969 85.945312 C 124.3125 85.945312 124.90625 85.046875 123.429688 85.046875 C 122.507812 85.046875 122.476562 85.058594 122.476562 85.585938 L 122.476562 86.648438 Z M 122.472656 86.648438 "/>
<path style=" stroke:none;fill-rule:nonzero;fill:rgb(0%,34.117647%,23.921569%);fill-opacity:1;" d="M 126.789062 85.644531 C 126.789062 84.785156 125.953125 85.070312 125.953125 84.792969 C 125.953125 84.71875 126.03125 84.675781 126.125 84.675781 C 126.476562 84.675781 126.535156 84.707031 127.015625 84.707031 C 127.527344 84.707031 128.046875 84.675781 128.558594 84.675781 C 130.234375 84.675781 130.386719 85.753906 130.386719 86.109375 C 130.386719 86.601562 130.164062 86.882812 129.945312 87.066406 C 129.722656 87.242188 129.503906 87.3125 129.503906 87.390625 C 129.503906 87.433594 130.152344 88.542969 130.703125 89.511719 C 130.769531 89.632812 130.917969 89.632812 130.980469 89.632812 C 131.054688 89.632812 131.132812 89.585938 131.207031 89.585938 C 131.273438 89.585938 131.324219 89.632812 131.324219 89.695312 C 131.324219 89.933594 130.820312 90.101562 130.515625 90.101562 C 129.914062 90.101562 129.667969 89.617188 129.429688 89.175781 L 128.789062 87.96875 C 128.613281 87.632812 128.476562 87.558594 128.089844 87.558594 C 127.683594 87.558594 127.734375 87.613281 127.734375 87.882812 L 127.734375 89.207031 C 127.734375 90.027344 128.488281 89.710938 128.488281 89.992188 C 128.488281 90.058594 128.425781 90.105469 128.253906 90.105469 C 128.121094 90.105469 127.917969 90.074219 127.597656 90.074219 C 127.183594 90.074219 126.800781 90.105469 126.417969 90.105469 C 126.332031 90.105469 126.171875 90.128906 126.171875 89.976562 C 126.171875 89.730469 126.792969 89.984375 126.792969 89.019531 L 126.792969 85.644531 Z M 127.726562 87.011719 C 127.726562 87.207031 128.007812 87.207031 128.238281 87.207031 C 129.398438 87.207031 129.449219 86.777344 129.449219 86.324219 C 129.449219 85.570312 129.019531 85.007812 128.246094 85.007812 C 127.964844 85.007812 127.730469 85.007812 127.730469 85.46875 L 127.730469 87.011719 Z M 127.726562 87.011719 "/>
<path style=" stroke:none;fill-rule:nonzero;fill:rgb(96.470588%,57.254902%,11.764706%);fill-opacity:1;" d="M 88.183594 28.617188 L 88.183594 50.53125 L 78.8125 50.53125 L 78.8125 16.84375 L 104.070312 16.84375 C 103.542969 17.367188 103.734375 18.15625 103.019531 19.179688 C 102.089844 20.421875 101.179688 19.84375 100.425781 20.75 C 99.734375 21.59375 100.035156 22.480469 99.382812 23.351562 C 98.453125 24.597656 97.03125 24.140625 96.007812 25.453125 C 95.175781 26.503906 95.222656 27.570312 94.4375 28.617188 Z M 88.183594 28.617188 "/>
<path style=" stroke:none;fill-rule:nonzero;fill:rgb(96.470588%,57.254902%,11.764706%);fill-opacity:1;" d="M 65.597656 16.847656 C 65.070312 17.371094 65.21875 18.210938 64.507812 19.234375 C 63.578125 20.472656 62.667969 19.898438 61.917969 20.804688 C 61.222656 21.648438 61.527344 22.527344 60.875 23.402344 C 59.945312 24.640625 58.550781 24.191406 57.5 25.496094 C 56.671875 26.542969 56.714844 27.570312 55.933594 28.617188 L 68.164062 28.617188 L 68.164062 39.574219 L 58.027344 39.574219 C 57.1875 39.574219 56.511719 39.664062 55.9375 39.050781 C 55.496094 38.582031 55.417969 38.125 55.417969 37.480469 L 55.417969 16.847656 L 44.507812 16.847656 L 44.511719 40.621094 C 44.507812 43.394531 46.320312 46.101562 47.359375 47.125 C 48.667969 48.4375 51.34375 50.53125 54.390625 50.53125 L 68.664062 50.53125 L 77.261719 40.621094 L 77.265625 16.847656 Z M 65.597656 16.847656 "/>
</g>
</svg>
