<?xml version="1.0" encoding="UTF-8"?>
<svg xmlns="http://www.w3.org/2000/svg" xmlns:xlink="http://www.w3.org/1999/xlink" width="125px" height="74px" viewBox="0 0 124 74" version="1.1">
<g id="surface1">
<path style=" stroke:none;fill-rule:nonzero;fill:rgb(0%,0%,0%);fill-opacity:1;" d="M 27.398438 58.988281 L 28.539062 58.988281 L 28.539062 68.175781 L 27.441406 68.175781 L 22.113281 60.769531 L 22.113281 68.179688 L 20.976562 68.179688 L 20.976562 58.992188 L 22.140625 58.992188 L 27.398438 66.25 Z M 103.847656 54.5 L 109.835938 54.5 L 109.835938 53.480469 L 104.984375 53.480469 L 104.984375 50.3125 L 109.734375 50.3125 L 109.734375 49.292969 L 104.984375 49.292969 L 104.984375 46.332031 L 109.832031 46.332031 L 109.832031 45.3125 L 103.847656 45.3125 Z M 17.097656 68.179688 L 18.234375 68.179688 L 18.234375 58.992188 L 17.097656 58.992188 Z M 118.269531 54.5 L 116.929688 54.5 L 114.601562 50.851562 L 112.777344 50.851562 L 112.777344 54.5 L 111.640625 54.5 L 111.640625 45.3125 L 115.308594 45.3125 C 116.980469 45.3125 118.171875 46.390625 118.171875 48.082031 C 118.171875 49.738281 117.050781 50.644531 115.804688 50.753906 Z M 115.175781 49.84375 C 116.257812 49.84375 116.996094 49.113281 116.996094 48.078125 C 116.996094 47.046875 116.257812 46.332031 115.175781 46.332031 L 112.777344 46.332031 L 112.777344 49.84375 Z M 39.664062 50.851562 L 37.839844 50.851562 L 37.839844 54.5 L 36.703125 54.5 L 36.703125 45.3125 L 40.375 45.3125 C 42.042969 45.3125 43.238281 46.390625 43.238281 48.082031 C 43.238281 49.738281 42.113281 50.644531 40.867188 50.753906 L 43.332031 54.503906 L 41.992188 54.503906 Z M 37.839844 49.84375 L 40.238281 49.84375 C 41.320312 49.84375 42.0625 49.113281 42.0625 48.078125 C 42.0625 47.046875 41.320312 46.332031 40.238281 46.332031 L 37.839844 46.332031 Z M 38.117188 60.011719 L 41.003906 60.011719 L 41.003906 68.179688 L 42.144531 68.179688 L 42.144531 60.011719 L 45.046875 60.011719 L 45.046875 58.992188 L 38.117188 58.992188 Z M 19.523438 51.71875 C 19.523438 52.863281 18.808594 53.644531 17.6875 53.644531 C 16.894531 53.644531 16.359375 53.21875 15.960938 52.734375 L 15.375 53.605469 C 16.003906 54.347656 16.785156 54.664062 17.757812 54.664062 C 19.382812 54.664062 20.660156 53.726562 20.660156 51.730469 L 20.660156 45.308594 L 19.523438 45.308594 Z M 45.902344 38.253906 C 54.355469 38.253906 58.535156 33.246094 60.367188 29.042969 L 52.191406 25.261719 C 51.394531 27.71875 48.953125 29.847656 45.898438 29.847656 C 41.578125 29.847656 38.523438 26.351562 38.523438 21.957031 C 38.523438 17.5625 41.578125 14.066406 45.898438 14.066406 C 48.953125 14.066406 51.394531 16.191406 52.191406 18.648438 L 60.367188 14.824219 C 58.488281 10.476562 54.355469 5.660156 45.902344 5.660156 C 36.320312 5.660156 28.894531 12.226562 28.894531 21.957031 C 28.894531 31.640625 36.316406 38.253906 45.902344 38.253906 Z M 22.136719 53.878906 C 22.136719 54.292969 22.480469 54.636719 22.890625 54.636719 C 23.296875 54.636719 23.640625 54.292969 23.640625 53.878906 C 23.640625 53.46875 23.300781 53.121094 22.890625 53.121094 C 22.476562 53.121094 22.136719 53.46875 22.136719 53.878906 Z M 55.179688 54.5 L 55.179688 45.3125 L 54.039062 45.3125 L 54.039062 54.5 Z M 105.75 6.175781 L 96.261719 6.175781 L 96.261719 37.6875 L 105.75 37.6875 Z M 31.734375 54.667969 C 33.390625 54.667969 34.488281 53.894531 35.253906 52.847656 L 34.28125 52.3125 C 33.757812 53.097656 32.816406 53.648438 31.734375 53.648438 C 29.777344 53.648438 28.253906 52.089844 28.253906 49.914062 C 28.253906 47.726562 29.773438 46.183594 31.734375 46.183594 C 32.816406 46.183594 33.761719 46.75 34.28125 47.519531 L 35.242188 46.984375 C 34.515625 45.949219 33.394531 45.164062 31.734375 45.164062 C 29.144531 45.164062 27.074219 47.09375 27.074219 49.917969 C 27.074219 52.734375 29.144531 54.667969 31.734375 54.667969 Z M 26.585938 26.445312 L 26.585938 6.175781 L 17.097656 6.175781 L 17.097656 26.300781 C 17.097656 28.519531 15.6875 29.84375 13.621094 29.84375 C 12.023438 29.84375 10.613281 29.136719 9.582031 28.425781 L 5.730469 35.703125 C 8.171875 37.59375 11.414062 38.253906 14.46875 38.253906 C 21.746094 38.253906 26.585938 34.519531 26.585938 26.445312 Z M 33.941406 62.847656 C 32.777344 62.527344 31.71875 62.253906 31.71875 61.332031 C 31.71875 60.464844 32.5 59.871094 33.597656 59.871094 C 34.597656 59.871094 35.554688 60.21875 36.242188 60.976562 L 36.925781 60.136719 C 36.160156 59.320312 35.078125 58.855469 33.679688 58.855469 C 31.886719 58.855469 30.546875 59.890625 30.546875 61.40625 C 30.546875 63.210938 32.171875 63.621094 33.640625 64.007812 C 34.847656 64.339844 35.957031 64.644531 35.957031 65.746094 C 35.957031 66.445312 35.433594 67.328125 33.804688 67.328125 C 32.515625 67.328125 31.53125 66.695312 30.929688 66.019531 L 30.257812 66.890625 C 31.011719 67.742188 32.171875 68.347656 33.765625 68.347656 C 36.230469 68.347656 37.136719 66.984375 37.136719 65.648438 C 37.132812 63.714844 35.433594 63.246094 33.941406 62.847656 Z M 76.0625 45.3125 L 72.980469 53.25 L 69.898438 45.3125 L 68.597656 45.3125 L 72.265625 54.5 L 73.675781 54.5 L 77.363281 45.3125 Z M 75.03125 68.179688 L 81.015625 68.179688 L 81.015625 67.160156 L 76.167969 67.160156 L 76.167969 63.992188 L 80.917969 63.992188 L 80.917969 62.972656 L 76.167969 62.972656 L 76.167969 60.011719 L 81.015625 60.011719 L 81.015625 58.992188 L 75.03125 58.992188 Z M 92.769531 52.574219 L 87.511719 45.3125 L 86.347656 45.3125 L 86.347656 54.5 L 87.488281 54.5 L 87.488281 47.089844 L 92.8125 54.5 L 93.910156 54.5 L 93.910156 45.3125 L 92.773438 45.3125 L 92.773438 52.574219 Z M 50.785156 52.460938 L 46.152344 52.460938 L 45.34375 54.5 L 44.085938 54.5 L 47.753906 45.3125 L 49.164062 45.3125 L 52.851562 54.5 L 51.589844 54.5 Z M 50.441406 51.445312 L 48.46875 46.332031 L 46.484375 51.445312 Z M 95.410156 46.332031 L 98.300781 46.332031 L 98.300781 54.5 L 99.4375 54.5 L 99.4375 46.332031 L 102.34375 46.332031 L 102.34375 45.3125 L 95.410156 45.3125 Z M 77.019531 27.386719 L 70.257812 6.175781 L 59.5 6.175781 L 71.054688 37.6875 L 82.988281 37.6875 L 94.542969 6.175781 L 83.785156 6.175781 Z M 84.535156 46.332031 L 84.535156 45.3125 L 78.550781 45.3125 L 78.550781 54.5 L 84.535156 54.5 L 84.535156 53.480469 L 79.6875 53.480469 L 79.6875 50.3125 L 84.4375 50.3125 L 84.4375 49.292969 L 79.6875 49.292969 L 79.6875 46.332031 Z M 49.199219 60.011719 L 52.085938 60.011719 L 52.085938 68.179688 L 53.226562 68.179688 L 53.226562 60.011719 L 56.128906 60.011719 L 56.128906 58.992188 L 49.199219 58.992188 Z M 63.949219 64.582031 C 63.949219 66.261719 63.042969 67.324219 61.359375 67.324219 C 59.675781 67.324219 58.769531 66.261719 58.769531 64.582031 L 58.769531 58.988281 L 57.632812 58.988281 L 57.632812 64.609375 C 57.632812 66.871094 58.878906 68.339844 61.359375 68.339844 C 63.839844 68.339844 65.085938 66.882812 65.085938 64.59375 L 65.085938 58.988281 L 63.949219 58.988281 Z M 46.554688 68.179688 L 47.691406 68.179688 L 47.691406 58.992188 L 46.554688 58.992188 Z M 66.59375 60.011719 L 69.480469 60.011719 L 69.480469 68.179688 L 70.617188 68.179688 L 70.617188 60.011719 L 73.523438 60.011719 L 73.523438 58.992188 L 66.59375 58.992188 Z M 60.960938 50.796875 L 64.09375 50.796875 L 64.09375 52.667969 C 63.644531 53.125 62.738281 53.660156 61.644531 53.660156 C 59.644531 53.660156 58.125 52.089844 58.125 49.914062 C 58.125 47.722656 59.644531 46.179688 61.644531 46.179688 C 62.742188 46.179688 63.714844 46.707031 64.289062 47.449219 L 65.191406 46.882812 C 64.382812 45.875 63.261719 45.160156 61.644531 45.160156 C 59.042969 45.160156 56.945312 47.0625 56.945312 49.914062 C 56.945312 52.765625 59.039062 54.679688 61.644531 54.679688 C 63.136719 54.679688 64.382812 54.042969 65.230469 53.09375 L 65.230469 49.773438 L 60.960938 49.773438 Z M 83.09375 60.832031 C 83.09375 60.5 83.167969 60.191406 83.320312 59.90625 C 83.472656 59.625 83.683594 59.398438 83.953125 59.238281 C 84.222656 59.074219 84.515625 58.992188 84.832031 58.992188 C 85.144531 58.992188 85.4375 59.074219 85.707031 59.238281 C 85.972656 59.402344 86.1875 59.625 86.339844 59.90625 C 86.492188 60.191406 86.566406 60.496094 86.566406 60.832031 C 86.566406 61.15625 86.496094 61.457031 86.347656 61.738281 C 86.203125 62.023438 85.992188 62.25 85.722656 62.421875 C 85.457031 62.59375 85.160156 62.679688 84.832031 62.679688 C 84.511719 62.679688 84.214844 62.59375 83.945312 62.425781 C 83.675781 62.253906 83.46875 62.027344 83.316406 61.746094 C 83.167969 61.460938 83.09375 61.15625 83.09375 60.832031 Z M 83.375 60.828125 C 83.375 61.109375 83.4375 61.371094 83.570312 61.609375 C 83.703125 61.847656 83.878906 62.039062 84.101562 62.175781 C 84.328125 62.3125 84.566406 62.378906 84.832031 62.378906 C 85.09375 62.378906 85.335938 62.3125 85.5625 62.171875 C 85.785156 62.035156 85.964844 61.847656 86.09375 61.609375 C 86.222656 61.367188 86.285156 61.109375 86.285156 60.828125 C 86.285156 60.546875 86.21875 60.289062 86.09375 60.050781 C 85.964844 59.816406 85.785156 59.625 85.5625 59.492188 C 85.335938 59.355469 85.09375 59.289062 84.832031 59.289062 C 84.566406 59.289062 84.328125 59.355469 84.101562 59.492188 C 83.875 59.625 83.699219 59.816406 83.570312 60.054688 C 83.4375 60.289062 83.375 60.546875 83.375 60.828125 Z M 84.46875 61.011719 L 84.46875 61.847656 L 84.125 61.847656 L 84.125 59.753906 L 84.800781 59.753906 C 85.050781 59.753906 85.246094 59.808594 85.382812 59.917969 C 85.519531 60.023438 85.589844 60.179688 85.589844 60.382812 C 85.589844 60.585938 85.488281 60.738281 85.277344 60.847656 C 85.476562 60.929688 85.578125 61.09375 85.578125 61.351562 L 85.578125 61.5 C 85.578125 61.640625 85.589844 61.742188 85.617188 61.804688 L 85.617188 61.847656 L 85.261719 61.847656 C 85.238281 61.785156 85.226562 61.683594 85.226562 61.527344 C 85.226562 61.378906 85.222656 61.285156 85.222656 61.257812 C 85.195312 61.101562 85.085938 61.019531 84.898438 61.011719 Z M 84.46875 60.699219 L 84.851562 60.699219 C 84.972656 60.695312 85.066406 60.667969 85.136719 60.613281 C 85.207031 60.5625 85.242188 60.488281 85.242188 60.398438 C 85.242188 60.28125 85.210938 60.195312 85.144531 60.144531 C 85.082031 60.09375 84.96875 60.070312 84.804688 60.070312 L 84.46875 60.070312 Z M 84.46875 60.699219 "/>
</g>
</svg>
